<mxfile host="65bd71144e">
    <diagram id="mkTvSRrXJvc3xhs5nzn9" name="kukan">
        <mxGraphModel dx="1198" dy="541" grid="1" gridSize="10" guides="1" tooltips="1" connect="1" arrows="1" fold="1" page="1" pageScale="1" pageWidth="827" pageHeight="1169" math="0" shadow="0">
            <root>
                <mxCell id="0"/>
                <mxCell id="1" parent="0"/>
                <mxCell id="6" value="&lt;font style=&quot;font-size: 35px&quot;&gt;公園&lt;/font&gt;" style="ellipse;whiteSpace=wrap;html=1;aspect=fixed;sketch=1;fillStyle=auto;fillColor=#99FFCC;gradientColor=none;" parent="1" vertex="1">
                    <mxGeometry x="350" y="60" width="160" height="160" as="geometry"/>
                </mxCell>
                <mxCell id="11" style="edgeStyle=none;html=1;exitX=0.706;exitY=0.025;exitDx=0;exitDy=0;entryX=0;entryY=1;entryDx=0;entryDy=0;fontFamily=M PLUS 1p;fontSource=https%3A%2F%2Ffonts.googleapis.com%2Fcss%3Ffamily%3DM%2BPLUS%2B1p;fontSize=35;exitPerimeter=0;endArrow=none;endFill=0;sketch=1;strokeWidth=5;strokeColor=#000000;" parent="1" source="7" target="6" edge="1">
                    <mxGeometry relative="1" as="geometry"/>
                </mxCell>
                <mxCell id="7" value="&lt;span style=&quot;font-size: 35px&quot;&gt;河川&lt;/span&gt;" style="ellipse;whiteSpace=wrap;html=1;aspect=fixed;sketch=1;fillStyle=auto;fillColor=#99FFCC;gradientColor=none;" parent="1" vertex="1">
                    <mxGeometry x="210" y="272" width="160" height="160" as="geometry"/>
                </mxCell>
                <mxCell id="12" style="edgeStyle=none;html=1;exitX=0.344;exitY=0.019;exitDx=0;exitDy=0;fontFamily=M PLUS 1p;fontSource=https%3A%2F%2Ffonts.googleapis.com%2Fcss%3Ffamily%3DM%2BPLUS%2B1p;fontSize=35;exitPerimeter=0;entryX=1;entryY=1;entryDx=0;entryDy=0;endArrow=none;endFill=0;strokeWidth=5;sketch=1;strokeColor=#000000;" parent="1" source="8" target="6" edge="1">
                    <mxGeometry relative="1" as="geometry"/>
                </mxCell>
                <mxCell id="8" value="&lt;span style=&quot;font-size: 35px&quot;&gt;道路&lt;/span&gt;" style="ellipse;whiteSpace=wrap;html=1;aspect=fixed;sketch=1;fillStyle=auto;fillColor=#99FFCC;gradientColor=none;" parent="1" vertex="1">
                    <mxGeometry x="487" y="280" width="160" height="160" as="geometry"/>
                </mxCell>
                <mxCell id="16" value="&lt;font style=&quot;font-size: 25px&quot;&gt;治水&lt;br&gt;+&lt;br&gt;憩い&lt;br&gt;&lt;/font&gt;" style="text;html=1;align=center;verticalAlign=middle;resizable=0;points=[];autosize=1;strokeColor=none;fillColor=none;fontSize=12;fontFamily=M PLUS 1p;" parent="1" vertex="1">
                    <mxGeometry x="240" y="180" width="70" height="60" as="geometry"/>
                </mxCell>
                <mxCell id="17" value="&lt;font style=&quot;font-size: 25px&quot;&gt;豊かな緑&lt;br&gt;+&lt;br&gt;交通機能&lt;/font&gt;" style="text;html=1;align=center;verticalAlign=middle;resizable=0;points=[];autosize=1;strokeColor=none;fillColor=none;fontSize=12;fontFamily=M PLUS 1p;" parent="1" vertex="1">
                    <mxGeometry x="521" y="180" width="120" height="60" as="geometry"/>
                </mxCell>
                <mxCell id="92K3c-Gac-Tq9rarZe9G-17" value="" style="rounded=1;whiteSpace=wrap;html=1;labelBackgroundColor=#FFFFFF;sketch=1;fillStyle=auto;fontFamily=M PLUS 1p;fontSource=https%3A%2F%2Ffonts.googleapis.com%2Fcss%3Ffamily%3DM%2BPLUS%2B1p;fontSize=25;fillColor=#99FFCC;gradientColor=none;opacity=20;" parent="1" vertex="1">
                    <mxGeometry x="185" y="10" width="490" height="440" as="geometry"/>
                </mxCell>
                <mxCell id="92K3c-Gac-Tq9rarZe9G-18" value="1つの空間" style="text;html=1;strokeColor=none;fillColor=none;align=center;verticalAlign=middle;whiteSpace=wrap;rounded=0;labelBackgroundColor=none;sketch=1;fillStyle=auto;fontFamily=M PLUS 1p;fontSource=https%3A%2F%2Ffonts.googleapis.com%2Fcss%3Ffamily%3DM%2BPLUS%2B1p;fontSize=25;opacity=20;" parent="1" vertex="1">
                    <mxGeometry x="364" y="20" width="123" height="30" as="geometry"/>
                </mxCell>
            </root>
        </mxGraphModel>
    </diagram>
    <diagram name="dokuritsu" id="tyzVYnppTgxKHNkd3m4M">
        <mxGraphModel dx="1198" dy="541" grid="1" gridSize="10" guides="1" tooltips="1" connect="1" arrows="1" fold="1" page="1" pageScale="1" pageWidth="827" pageHeight="1169" math="0" shadow="0">
            <root>
                <mxCell id="3hiUPmRJmfAbgRGF-3J0-0"/>
                <mxCell id="3hiUPmRJmfAbgRGF-3J0-1" parent="3hiUPmRJmfAbgRGF-3J0-0"/>
                <mxCell id="ZUhQcqdY8yVK2b5ZEU0Q-5" value="" style="group" parent="3hiUPmRJmfAbgRGF-3J0-1" vertex="1" connectable="0">
                    <mxGeometry x="330" y="10" width="200" height="280" as="geometry"/>
                </mxCell>
                <mxCell id="ZUhQcqdY8yVK2b5ZEU0Q-6" value="" style="rounded=1;whiteSpace=wrap;html=1;labelBackgroundColor=#FFFFFF;sketch=1;fillStyle=auto;fontFamily=M PLUS 1p;fontSource=https%3A%2F%2Ffonts.googleapis.com%2Fcss%3Ffamily%3DM%2BPLUS%2B1p;fontSize=25;fillColor=#99FFCC;gradientColor=none;opacity=20;" parent="ZUhQcqdY8yVK2b5ZEU0Q-5" vertex="1">
                    <mxGeometry x="1.980952380952381" width="200" height="280.00000000000006" as="geometry"/>
                </mxCell>
                <mxCell id="ZUhQcqdY8yVK2b5ZEU0Q-7" value="1つの空間" style="text;html=1;strokeColor=none;fillColor=none;align=center;verticalAlign=middle;whiteSpace=wrap;rounded=0;labelBackgroundColor=none;sketch=1;fillStyle=auto;fontFamily=M PLUS 1p;fontSource=https%3A%2F%2Ffonts.googleapis.com%2Fcss%3Ffamily%3DM%2BPLUS%2B1p;fontSize=25;opacity=20;" parent="ZUhQcqdY8yVK2b5ZEU0Q-5" vertex="1">
                    <mxGeometry x="37.114285714285714" y="11.197454545454542" width="127.76190476190476" height="19.09090909090909" as="geometry"/>
                </mxCell>
                <mxCell id="3hiUPmRJmfAbgRGF-3J0-2" value="&lt;font style=&quot;font-size: 35px&quot;&gt;公園&lt;/font&gt;" style="ellipse;whiteSpace=wrap;html=1;aspect=fixed;sketch=1;fillStyle=auto;fillColor=#99FFCC;gradientColor=none;" parent="ZUhQcqdY8yVK2b5ZEU0Q-5" vertex="1">
                    <mxGeometry x="20" y="42.18181818181818" width="160" height="160" as="geometry"/>
                </mxCell>
                <mxCell id="ZUhQcqdY8yVK2b5ZEU0Q-13" value="河川と道路を&lt;br&gt;差し引いた所" style="text;html=1;strokeColor=none;fillColor=none;align=center;verticalAlign=middle;whiteSpace=wrap;rounded=0;labelBackgroundColor=none;sketch=1;fillStyle=auto;fontFamily=M PLUS 1p;fontSource=https%3A%2F%2Ffonts.googleapis.com%2Fcss%3Ffamily%3DM%2BPLUS%2B1p;fontSize=25;opacity=20;" parent="ZUhQcqdY8yVK2b5ZEU0Q-5" vertex="1">
                    <mxGeometry x="15" y="230" width="176.98" height="17.73" as="geometry"/>
                </mxCell>
                <mxCell id="ZUhQcqdY8yVK2b5ZEU0Q-8" value="" style="group" parent="3hiUPmRJmfAbgRGF-3J0-1" vertex="1" connectable="0">
                    <mxGeometry x="480" y="310" width="200" height="260" as="geometry"/>
                </mxCell>
                <mxCell id="ZUhQcqdY8yVK2b5ZEU0Q-9" value="" style="rounded=1;whiteSpace=wrap;html=1;labelBackgroundColor=#FFFFFF;sketch=1;fillStyle=auto;fontFamily=M PLUS 1p;fontSource=https%3A%2F%2Ffonts.googleapis.com%2Fcss%3Ffamily%3DM%2BPLUS%2B1p;fontSize=25;fillColor=#99FFCC;gradientColor=none;opacity=20;" parent="ZUhQcqdY8yVK2b5ZEU0Q-8" vertex="1">
                    <mxGeometry width="200" height="260" as="geometry"/>
                </mxCell>
                <mxCell id="ZUhQcqdY8yVK2b5ZEU0Q-10" value="1つの空間" style="text;html=1;strokeColor=none;fillColor=none;align=center;verticalAlign=middle;whiteSpace=wrap;rounded=0;labelBackgroundColor=none;sketch=1;fillStyle=auto;fontFamily=M PLUS 1p;fontSource=https%3A%2F%2Ffonts.googleapis.com%2Fcss%3Ffamily%3DM%2BPLUS%2B1p;fontSize=25;opacity=20;" parent="ZUhQcqdY8yVK2b5ZEU0Q-8" vertex="1">
                    <mxGeometry x="30.114285714285714" y="8.31810909090909" width="127.76190476190476" height="14.181818181818182" as="geometry"/>
                </mxCell>
                <mxCell id="3hiUPmRJmfAbgRGF-3J0-6" value="&lt;span style=&quot;font-size: 35px&quot;&gt;道路&lt;/span&gt;" style="ellipse;whiteSpace=wrap;html=1;aspect=fixed;sketch=1;fillStyle=auto;fillColor=#99FFCC;gradientColor=none;" parent="ZUhQcqdY8yVK2b5ZEU0Q-8" vertex="1">
                    <mxGeometry x="22" y="34.32" width="160" height="160" as="geometry"/>
                </mxCell>
                <mxCell id="ZUhQcqdY8yVK2b5ZEU0Q-12" value="自動車交通の円滑化" style="text;html=1;strokeColor=none;fillColor=none;align=center;verticalAlign=middle;whiteSpace=wrap;rounded=0;labelBackgroundColor=none;sketch=1;fillStyle=auto;fontFamily=M PLUS 1p;fontSource=https%3A%2F%2Ffonts.googleapis.com%2Fcss%3Ffamily%3DM%2BPLUS%2B1p;fontSize=25;opacity=20;" parent="ZUhQcqdY8yVK2b5ZEU0Q-8" vertex="1">
                    <mxGeometry x="25" y="220" width="150" height="17.732000000000003" as="geometry"/>
                </mxCell>
                <mxCell id="ZUhQcqdY8yVK2b5ZEU0Q-2" value="" style="group" parent="3hiUPmRJmfAbgRGF-3J0-1" vertex="1" connectable="0">
                    <mxGeometry x="190" y="310" width="200" height="260" as="geometry"/>
                </mxCell>
                <mxCell id="ZUhQcqdY8yVK2b5ZEU0Q-0" value="" style="rounded=1;whiteSpace=wrap;html=1;labelBackgroundColor=#FFFFFF;sketch=1;fillStyle=auto;fontFamily=M PLUS 1p;fontSource=https%3A%2F%2Ffonts.googleapis.com%2Fcss%3Ffamily%3DM%2BPLUS%2B1p;fontSize=25;fillColor=#99FFCC;gradientColor=none;opacity=20;" parent="ZUhQcqdY8yVK2b5ZEU0Q-2" vertex="1">
                    <mxGeometry x="1.980952380952381" width="200" height="260" as="geometry"/>
                </mxCell>
                <mxCell id="ZUhQcqdY8yVK2b5ZEU0Q-1" value="1つの空間" style="text;html=1;strokeColor=none;fillColor=none;align=center;verticalAlign=middle;whiteSpace=wrap;rounded=0;labelBackgroundColor=none;sketch=1;fillStyle=auto;fontFamily=M PLUS 1p;fontSource=https%3A%2F%2Ffonts.googleapis.com%2Fcss%3Ffamily%3DM%2BPLUS%2B1p;fontSize=25;opacity=20;" parent="ZUhQcqdY8yVK2b5ZEU0Q-2" vertex="1">
                    <mxGeometry x="37.114285714285714" y="10.397636363636362" width="127.76190476190476" height="17.727272727272727" as="geometry"/>
                </mxCell>
                <mxCell id="ZUhQcqdY8yVK2b5ZEU0Q-11" value="治水の安全" style="text;html=1;strokeColor=none;fillColor=none;align=center;verticalAlign=middle;whiteSpace=wrap;rounded=0;labelBackgroundColor=none;sketch=1;fillStyle=auto;fontFamily=M PLUS 1p;fontSource=https%3A%2F%2Ffonts.googleapis.com%2Fcss%3Ffamily%3DM%2BPLUS%2B1p;fontSize=25;opacity=20;" parent="ZUhQcqdY8yVK2b5ZEU0Q-2" vertex="1">
                    <mxGeometry x="36.120000000000005" y="218.4" width="127.76190476190476" height="17.727272727272727" as="geometry"/>
                </mxCell>
                <mxCell id="3hiUPmRJmfAbgRGF-3J0-4" value="&lt;span style=&quot;font-size: 35px&quot;&gt;河川&lt;/span&gt;" style="ellipse;whiteSpace=wrap;html=1;aspect=fixed;sketch=1;fillStyle=auto;fillColor=#99FFCC;gradientColor=none;" parent="ZUhQcqdY8yVK2b5ZEU0Q-2" vertex="1">
                    <mxGeometry x="20" y="50" width="160" height="160" as="geometry"/>
                </mxCell>
            </root>
        </mxGraphModel>
    </diagram>
    <diagram id="EZKCxa-lFof7Ubnp3hbu" name="fukusu">
        <mxGraphModel dx="1968" dy="515" grid="1" gridSize="10" guides="1" tooltips="1" connect="1" arrows="1" fold="1" page="1" pageScale="1" pageWidth="827" pageHeight="1169" math="0" shadow="0">
            <root>
                <mxCell id="50SQLvur7CTwTA8t1ciJ-0"/>
                <mxCell id="50SQLvur7CTwTA8t1ciJ-1" parent="50SQLvur7CTwTA8t1ciJ-0"/>
                <mxCell id="TCK0_4QEhRExWSbtoC1z-0" value="" style="group" parent="50SQLvur7CTwTA8t1ciJ-1" vertex="1" connectable="0">
                    <mxGeometry x="-30" y="120" width="200" height="280" as="geometry"/>
                </mxCell>
                <mxCell id="TCK0_4QEhRExWSbtoC1z-1" value="" style="rounded=1;whiteSpace=wrap;html=1;labelBackgroundColor=#FFFFFF;sketch=1;fillStyle=auto;fontFamily=M PLUS 1p;fontSource=https%3A%2F%2Ffonts.googleapis.com%2Fcss%3Ffamily%3DM%2BPLUS%2B1p;fontSize=25;fillColor=#99FFCC;gradientColor=none;opacity=20;" parent="TCK0_4QEhRExWSbtoC1z-0" vertex="1">
                    <mxGeometry x="1.980952380952381" width="200" height="280.00000000000006" as="geometry"/>
                </mxCell>
                <mxCell id="TCK0_4QEhRExWSbtoC1z-2" value="1つの空間" style="text;html=1;strokeColor=none;fillColor=none;align=center;verticalAlign=middle;whiteSpace=wrap;rounded=0;labelBackgroundColor=none;sketch=1;fillStyle=auto;fontFamily=M PLUS 1p;fontSource=https%3A%2F%2Ffonts.googleapis.com%2Fcss%3Ffamily%3DM%2BPLUS%2B1p;fontSize=25;opacity=20;" parent="TCK0_4QEhRExWSbtoC1z-0" vertex="1">
                    <mxGeometry x="37.114285714285714" y="11.197454545454542" width="127.76190476190476" height="19.09090909090909" as="geometry"/>
                </mxCell>
                <mxCell id="TCK0_4QEhRExWSbtoC1z-3" value="&lt;font style=&quot;font-size: 35px&quot;&gt;公園&lt;/font&gt;" style="ellipse;whiteSpace=wrap;html=1;aspect=fixed;sketch=1;fillStyle=auto;fillColor=#99FFCC;gradientColor=none;" parent="TCK0_4QEhRExWSbtoC1z-0" vertex="1">
                    <mxGeometry x="20" y="42.18181818181818" width="160" height="160" as="geometry"/>
                </mxCell>
                <mxCell id="TCK0_4QEhRExWSbtoC1z-4" value="河川と道路を&lt;br&gt;差し引いた所" style="text;html=1;strokeColor=none;fillColor=none;align=center;verticalAlign=middle;whiteSpace=wrap;rounded=0;labelBackgroundColor=none;sketch=1;fillStyle=auto;fontFamily=M PLUS 1p;fontSource=https%3A%2F%2Ffonts.googleapis.com%2Fcss%3Ffamily%3DM%2BPLUS%2B1p;fontSize=25;opacity=20;" parent="TCK0_4QEhRExWSbtoC1z-0" vertex="1">
                    <mxGeometry x="15" y="230" width="176.98" height="17.73" as="geometry"/>
                </mxCell>
                <mxCell id="TCK0_4QEhRExWSbtoC1z-5" value="" style="group" parent="50SQLvur7CTwTA8t1ciJ-1" vertex="1" connectable="0">
                    <mxGeometry x="120" y="420" width="200" height="260" as="geometry"/>
                </mxCell>
                <mxCell id="TCK0_4QEhRExWSbtoC1z-6" value="" style="rounded=1;whiteSpace=wrap;html=1;labelBackgroundColor=#FFFFFF;sketch=1;fillStyle=auto;fontFamily=M PLUS 1p;fontSource=https%3A%2F%2Ffonts.googleapis.com%2Fcss%3Ffamily%3DM%2BPLUS%2B1p;fontSize=25;fillColor=#99FFCC;gradientColor=none;opacity=20;" parent="TCK0_4QEhRExWSbtoC1z-5" vertex="1">
                    <mxGeometry width="200" height="260" as="geometry"/>
                </mxCell>
                <mxCell id="TCK0_4QEhRExWSbtoC1z-7" value="1つの空間" style="text;html=1;strokeColor=none;fillColor=none;align=center;verticalAlign=middle;whiteSpace=wrap;rounded=0;labelBackgroundColor=none;sketch=1;fillStyle=auto;fontFamily=M PLUS 1p;fontSource=https%3A%2F%2Ffonts.googleapis.com%2Fcss%3Ffamily%3DM%2BPLUS%2B1p;fontSize=25;opacity=20;" parent="TCK0_4QEhRExWSbtoC1z-5" vertex="1">
                    <mxGeometry x="30.114285714285714" y="8.31810909090909" width="127.76190476190476" height="14.181818181818182" as="geometry"/>
                </mxCell>
                <mxCell id="TCK0_4QEhRExWSbtoC1z-8" value="&lt;span style=&quot;font-size: 35px&quot;&gt;道路&lt;/span&gt;" style="ellipse;whiteSpace=wrap;html=1;aspect=fixed;sketch=1;fillStyle=auto;fillColor=#99FFCC;gradientColor=none;" parent="TCK0_4QEhRExWSbtoC1z-5" vertex="1">
                    <mxGeometry x="22" y="34.32" width="160" height="160" as="geometry"/>
                </mxCell>
                <mxCell id="TCK0_4QEhRExWSbtoC1z-9" value="自動車交通の円滑化" style="text;html=1;strokeColor=none;fillColor=none;align=center;verticalAlign=middle;whiteSpace=wrap;rounded=0;labelBackgroundColor=none;sketch=1;fillStyle=auto;fontFamily=M PLUS 1p;fontSource=https%3A%2F%2Ffonts.googleapis.com%2Fcss%3Ffamily%3DM%2BPLUS%2B1p;fontSize=25;opacity=20;" parent="TCK0_4QEhRExWSbtoC1z-5" vertex="1">
                    <mxGeometry x="25" y="220" width="150" height="17.732000000000003" as="geometry"/>
                </mxCell>
                <mxCell id="TCK0_4QEhRExWSbtoC1z-10" value="" style="group" parent="50SQLvur7CTwTA8t1ciJ-1" vertex="1" connectable="0">
                    <mxGeometry x="-170" y="420" width="200" height="260" as="geometry"/>
                </mxCell>
                <mxCell id="TCK0_4QEhRExWSbtoC1z-11" value="" style="rounded=1;whiteSpace=wrap;html=1;labelBackgroundColor=#FFFFFF;sketch=1;fillStyle=auto;fontFamily=M PLUS 1p;fontSource=https%3A%2F%2Ffonts.googleapis.com%2Fcss%3Ffamily%3DM%2BPLUS%2B1p;fontSize=25;fillColor=#99FFCC;gradientColor=none;opacity=20;" parent="TCK0_4QEhRExWSbtoC1z-10" vertex="1">
                    <mxGeometry x="1.980952380952381" width="200" height="260" as="geometry"/>
                </mxCell>
                <mxCell id="TCK0_4QEhRExWSbtoC1z-12" value="1つの空間" style="text;html=1;strokeColor=none;fillColor=none;align=center;verticalAlign=middle;whiteSpace=wrap;rounded=0;labelBackgroundColor=none;sketch=1;fillStyle=auto;fontFamily=M PLUS 1p;fontSource=https%3A%2F%2Ffonts.googleapis.com%2Fcss%3Ffamily%3DM%2BPLUS%2B1p;fontSize=25;opacity=20;" parent="TCK0_4QEhRExWSbtoC1z-10" vertex="1">
                    <mxGeometry x="37.114285714285714" y="10.397636363636362" width="127.76190476190476" height="17.727272727272727" as="geometry"/>
                </mxCell>
                <mxCell id="TCK0_4QEhRExWSbtoC1z-13" value="治水の安全" style="text;html=1;strokeColor=none;fillColor=none;align=center;verticalAlign=middle;whiteSpace=wrap;rounded=0;labelBackgroundColor=none;sketch=1;fillStyle=auto;fontFamily=M PLUS 1p;fontSource=https%3A%2F%2Ffonts.googleapis.com%2Fcss%3Ffamily%3DM%2BPLUS%2B1p;fontSize=25;opacity=20;" parent="TCK0_4QEhRExWSbtoC1z-10" vertex="1">
                    <mxGeometry x="36.120000000000005" y="218.4" width="127.76190476190476" height="17.727272727272727" as="geometry"/>
                </mxCell>
                <mxCell id="TCK0_4QEhRExWSbtoC1z-14" value="&lt;span style=&quot;font-size: 35px&quot;&gt;河川&lt;/span&gt;" style="ellipse;whiteSpace=wrap;html=1;aspect=fixed;sketch=1;fillStyle=auto;fillColor=#99FFCC;gradientColor=none;" parent="TCK0_4QEhRExWSbtoC1z-10" vertex="1">
                    <mxGeometry x="20" y="50" width="160" height="160" as="geometry"/>
                </mxCell>
                <mxCell id="OreSykpML1YGGCnaYH8P-0" value="&lt;font style=&quot;font-size: 35px&quot;&gt;公園&lt;/font&gt;" style="ellipse;whiteSpace=wrap;html=1;aspect=fixed;sketch=1;fillStyle=auto;fillColor=#99FFCC;gradientColor=none;" parent="50SQLvur7CTwTA8t1ciJ-1" vertex="1">
                    <mxGeometry x="725" y="240" width="160" height="160" as="geometry"/>
                </mxCell>
                <mxCell id="OreSykpML1YGGCnaYH8P-1" style="edgeStyle=none;html=1;exitX=0.706;exitY=0.025;exitDx=0;exitDy=0;entryX=0;entryY=1;entryDx=0;entryDy=0;fontFamily=M PLUS 1p;fontSource=https%3A%2F%2Ffonts.googleapis.com%2Fcss%3Ffamily%3DM%2BPLUS%2B1p;fontSize=35;exitPerimeter=0;endArrow=none;endFill=0;sketch=1;strokeWidth=5;strokeColor=#000000;" parent="50SQLvur7CTwTA8t1ciJ-1" source="OreSykpML1YGGCnaYH8P-2" target="OreSykpML1YGGCnaYH8P-0" edge="1">
                    <mxGeometry relative="1" as="geometry"/>
                </mxCell>
                <mxCell id="OreSykpML1YGGCnaYH8P-2" value="&lt;span style=&quot;font-size: 35px&quot;&gt;河川&lt;/span&gt;" style="ellipse;whiteSpace=wrap;html=1;aspect=fixed;sketch=1;fillStyle=auto;fillColor=#99FFCC;gradientColor=none;" parent="50SQLvur7CTwTA8t1ciJ-1" vertex="1">
                    <mxGeometry x="585" y="452" width="160" height="160" as="geometry"/>
                </mxCell>
                <mxCell id="OreSykpML1YGGCnaYH8P-3" style="edgeStyle=none;html=1;exitX=0.344;exitY=0.019;exitDx=0;exitDy=0;fontFamily=M PLUS 1p;fontSource=https%3A%2F%2Ffonts.googleapis.com%2Fcss%3Ffamily%3DM%2BPLUS%2B1p;fontSize=35;exitPerimeter=0;entryX=1;entryY=1;entryDx=0;entryDy=0;endArrow=none;endFill=0;strokeWidth=5;sketch=1;strokeColor=#000000;" parent="50SQLvur7CTwTA8t1ciJ-1" source="OreSykpML1YGGCnaYH8P-4" target="OreSykpML1YGGCnaYH8P-0" edge="1">
                    <mxGeometry relative="1" as="geometry"/>
                </mxCell>
                <mxCell id="OreSykpML1YGGCnaYH8P-4" value="&lt;span style=&quot;font-size: 35px&quot;&gt;道路&lt;/span&gt;" style="ellipse;whiteSpace=wrap;html=1;aspect=fixed;sketch=1;fillStyle=auto;fillColor=#99FFCC;gradientColor=none;" parent="50SQLvur7CTwTA8t1ciJ-1" vertex="1">
                    <mxGeometry x="862" y="460" width="160" height="160" as="geometry"/>
                </mxCell>
                <mxCell id="OreSykpML1YGGCnaYH8P-5" value="&lt;font style=&quot;font-size: 25px&quot;&gt;治水&lt;br&gt;+&lt;br&gt;憩い&lt;br&gt;&lt;/font&gt;" style="text;html=1;align=center;verticalAlign=middle;resizable=0;points=[];autosize=1;strokeColor=none;fillColor=none;fontSize=12;fontFamily=M PLUS 1p;" parent="50SQLvur7CTwTA8t1ciJ-1" vertex="1">
                    <mxGeometry x="615" y="360" width="70" height="60" as="geometry"/>
                </mxCell>
                <mxCell id="OreSykpML1YGGCnaYH8P-6" value="&lt;font style=&quot;font-size: 25px&quot;&gt;豊かな緑&lt;br&gt;+&lt;br&gt;交通機能&lt;/font&gt;" style="text;html=1;align=center;verticalAlign=middle;resizable=0;points=[];autosize=1;strokeColor=none;fillColor=none;fontSize=12;fontFamily=M PLUS 1p;" parent="50SQLvur7CTwTA8t1ciJ-1" vertex="1">
                    <mxGeometry x="896" y="360" width="120" height="60" as="geometry"/>
                </mxCell>
                <mxCell id="OreSykpML1YGGCnaYH8P-7" value="" style="rounded=1;whiteSpace=wrap;html=1;labelBackgroundColor=#FFFFFF;sketch=1;fillStyle=auto;fontFamily=M PLUS 1p;fontSource=https%3A%2F%2Ffonts.googleapis.com%2Fcss%3Ffamily%3DM%2BPLUS%2B1p;fontSize=25;fillColor=#99FFCC;gradientColor=none;opacity=20;" parent="50SQLvur7CTwTA8t1ciJ-1" vertex="1">
                    <mxGeometry x="560" y="190" width="490" height="440" as="geometry"/>
                </mxCell>
                <mxCell id="OreSykpML1YGGCnaYH8P-8" value="1つの空間" style="text;html=1;strokeColor=none;fillColor=none;align=center;verticalAlign=middle;whiteSpace=wrap;rounded=0;labelBackgroundColor=none;sketch=1;fillStyle=auto;fontFamily=M PLUS 1p;fontSource=https%3A%2F%2Ffonts.googleapis.com%2Fcss%3Ffamily%3DM%2BPLUS%2B1p;fontSize=25;opacity=20;" parent="50SQLvur7CTwTA8t1ciJ-1" vertex="1">
                    <mxGeometry x="739" y="200" width="123" height="30" as="geometry"/>
                </mxCell>
                <mxCell id="OreSykpML1YGGCnaYH8P-9" value="" style="shape=flexArrow;endArrow=classic;html=1;strokeColor=#000000;sketch=1;rounded=0;fillColor=#000000;strokeWidth=2;endWidth=49.70521541950113;endSize=15.19047619047619;width=43.80952380952381;" parent="50SQLvur7CTwTA8t1ciJ-1" edge="1">
                    <mxGeometry width="50" height="50" relative="1" as="geometry">
                        <mxPoint x="339" y="400" as="sourcePoint"/>
                        <mxPoint x="488" y="400" as="targetPoint"/>
                    </mxGeometry>
                </mxCell>
            </root>
        </mxGraphModel>
    </diagram>
    <diagram id="o0kP5HQJL1VkZYrky5Px" name="fukuin_kosei">
        <mxGraphModel dx="2025" dy="541" grid="1" gridSize="10" guides="1" tooltips="1" connect="1" arrows="1" fold="1" page="1" pageScale="1" pageWidth="827" pageHeight="1169" math="0" shadow="0">
            <root>
                <mxCell id="mZxIsJHRWfemn0VkZBA5-0"/>
                <mxCell id="mZxIsJHRWfemn0VkZBA5-1" parent="mZxIsJHRWfemn0VkZBA5-0"/>
                <mxCell id="mZxIsJHRWfemn0VkZBA5-21" value="" style="shape=trapezoid;perimeter=trapezoidPerimeter;whiteSpace=wrap;html=1;fixedSize=1;rotation=-180;size=25.5;fillColor=#1ba1e2;fontColor=#ffffff;strokeColor=#006EAF;sketch=1;" parent="mZxIsJHRWfemn0VkZBA5-1" vertex="1">
                    <mxGeometry x="323.5" y="380" width="244.5" height="50" as="geometry"/>
                </mxCell>
                <mxCell id="mZxIsJHRWfemn0VkZBA5-22" value="" style="shape=trapezoid;perimeter=trapezoidPerimeter;whiteSpace=wrap;html=1;fixedSize=1;rotation=0;size=40;" parent="mZxIsJHRWfemn0VkZBA5-1" vertex="1">
                    <mxGeometry x="540" y="350" width="290" height="80" as="geometry"/>
                </mxCell>
                <mxCell id="mZxIsJHRWfemn0VkZBA5-23" value="" style="shape=trapezoid;perimeter=trapezoidPerimeter;whiteSpace=wrap;html=1;fixedSize=1;rotation=0;size=40;" parent="mZxIsJHRWfemn0VkZBA5-1" vertex="1">
                    <mxGeometry x="80" y="350" width="270" height="80" as="geometry"/>
                </mxCell>
                <mxCell id="mZxIsJHRWfemn0VkZBA5-25" value="" style="shape=trapezoid;perimeter=trapezoidPerimeter;whiteSpace=wrap;html=1;fixedSize=1;rotation=0;size=40;" parent="mZxIsJHRWfemn0VkZBA5-1" vertex="1">
                    <mxGeometry x="140" y="260" width="125.5" height="90" as="geometry"/>
                </mxCell>
                <mxCell id="mZxIsJHRWfemn0VkZBA5-37" value="堤内地" style="text;html=1;align=center;verticalAlign=middle;resizable=0;points=[];autosize=1;strokeColor=none;fillColor=none;fontSize=12;fontFamily=Helvetica;fontColor=default;" parent="mZxIsJHRWfemn0VkZBA5-1" vertex="1">
                    <mxGeometry x="-10" y="474" width="50" height="20" as="geometry"/>
                </mxCell>
                <mxCell id="mZxIsJHRWfemn0VkZBA5-39" value="" style="endArrow=classic;startArrow=classic;html=1;rounded=0;sketch=1;fontFamily=Helvetica;fontSize=12;fontColor=default;strokeColor=#000000;strokeWidth=2;fillColor=#000000;" parent="mZxIsJHRWfemn0VkZBA5-1" edge="1">
                    <mxGeometry width="50" height="50" relative="1" as="geometry">
                        <mxPoint x="80" y="450" as="sourcePoint"/>
                        <mxPoint x="350" y="450" as="targetPoint"/>
                    </mxGeometry>
                </mxCell>
                <mxCell id="mZxIsJHRWfemn0VkZBA5-40" value="" style="endArrow=classic;startArrow=classic;html=1;rounded=0;sketch=1;fontFamily=Helvetica;fontSize=12;fontColor=default;strokeColor=#000000;strokeWidth=2;fillColor=#000000;" parent="mZxIsJHRWfemn0VkZBA5-1" edge="1">
                    <mxGeometry width="50" height="50" relative="1" as="geometry">
                        <mxPoint x="535.5" y="450" as="sourcePoint"/>
                        <mxPoint x="830" y="450" as="targetPoint"/>
                    </mxGeometry>
                </mxCell>
                <mxCell id="mZxIsJHRWfemn0VkZBA5-41" value="堤防敷" style="text;html=1;align=center;verticalAlign=middle;resizable=0;points=[];autosize=1;strokeColor=none;fillColor=none;fontSize=12;fontFamily=Helvetica;fontColor=default;" parent="mZxIsJHRWfemn0VkZBA5-1" vertex="1">
                    <mxGeometry x="187.75" y="454" width="50" height="20" as="geometry"/>
                </mxCell>
                <mxCell id="mZxIsJHRWfemn0VkZBA5-42" value="堤防敷" style="text;html=1;align=center;verticalAlign=middle;resizable=0;points=[];autosize=1;strokeColor=none;fillColor=none;fontSize=12;fontFamily=Helvetica;fontColor=default;" parent="mZxIsJHRWfemn0VkZBA5-1" vertex="1">
                    <mxGeometry x="684.75" y="454" width="50" height="20" as="geometry"/>
                </mxCell>
                <mxCell id="mZxIsJHRWfemn0VkZBA5-43" value="" style="endArrow=classic;startArrow=classic;html=1;rounded=0;sketch=1;fontFamily=Helvetica;fontSize=12;fontColor=default;strokeColor=#000000;strokeWidth=2;fillColor=#000000;" parent="mZxIsJHRWfemn0VkZBA5-1" edge="1">
                    <mxGeometry width="50" height="50" relative="1" as="geometry">
                        <mxPoint x="265.5" y="344.52" as="sourcePoint"/>
                        <mxPoint x="310" y="345" as="targetPoint"/>
                    </mxGeometry>
                </mxCell>
                <mxCell id="mZxIsJHRWfemn0VkZBA5-44" value="歩道" style="text;html=1;align=center;verticalAlign=middle;resizable=0;points=[];autosize=1;strokeColor=none;fillColor=none;fontSize=12;fontFamily=Helvetica;fontColor=default;" parent="mZxIsJHRWfemn0VkZBA5-1" vertex="1">
                    <mxGeometry x="265.5" y="320" width="40" height="20" as="geometry"/>
                </mxCell>
                <mxCell id="mZxIsJHRWfemn0VkZBA5-45" value="" style="endArrow=none;html=1;rounded=0;sketch=1;fontFamily=Helvetica;fontSize=12;fontColor=default;strokeColor=#000000;strokeWidth=2;fillColor=#000000;" parent="mZxIsJHRWfemn0VkZBA5-1" edge="1">
                    <mxGeometry width="50" height="50" relative="1" as="geometry">
                        <mxPoint x="70" y="430" as="sourcePoint"/>
                        <mxPoint x="-40" y="430" as="targetPoint"/>
                    </mxGeometry>
                </mxCell>
                <mxCell id="mZxIsJHRWfemn0VkZBA5-46" value="" style="shape=mxgraph.signs.transportation.car_4;html=1;pointerEvents=1;fillColor=#000000;strokeColor=none;verticalLabelPosition=bottom;verticalAlign=top;align=center;sketch=0;fontFamily=Helvetica;fontSize=12;fontColor=default;" parent="mZxIsJHRWfemn0VkZBA5-1" vertex="1">
                    <mxGeometry x="20" y="380" width="50" height="48" as="geometry"/>
                </mxCell>
                <mxCell id="mZxIsJHRWfemn0VkZBA5-48" value="" style="shape=image;verticalLabelPosition=bottom;verticalAlign=top;imageAspect=0;aspect=fixed;image=data:image/png,iVBORw0KGgoAAAANSUhEUgAAA9QAAANqCAQAAADGHcsKAAAABGdBTUEAALGPC/xhBQAAACBjSFJNAAB6JgAAgIQAAPoAAACA6AAAdTAAAOpgAAA6mAAAF3CculE8AAAAAmJLR0QA/4ePzL8AAAAJcEhZcwAAAGAAAABgAPBrQs8AAAAHdElNRQflAxoGEC8Xx74AAABRnUlEQVR42u3dd4AV1d3G8WdgKdKLBSmioIKIiFhQASsYu7GgJnZ9Y48tGtHElqiJpthrYu8idmwgIAooICKCIMWCgAqignTYPe8fIAG23TIzvzMz30/+iMDunWfu7J1nz5kWOAFAWH50szVX8/S95mu+ftYiLdBSLdFSLVvv6+qrtqRaaqQmaqImaqwmaqxWaqHWahBYrwXgk4CiBlC4RW66Vv9vpmZpphaH8JoN1FottKW2WfO/+hQ3Mo2iBpCnFe5TTdQn+lgTNTuG5bXStuqirtpJnVSL0kbmUNQAcuLcVI3WGI3WeC03ylBbndVV3dVT2ymgspERFDWAKjk3UcP0joZrnnWUdTRXD/VSD+3CGBupR1EDqMQ37k29ocGabx2kCg21vw7UgWpLXSO1KGoAG3BujF7QG/pYydk/bKeDdLD2UU0KG6lDUQNYq8yN1Kt6TjOsgxSomQ5RXx3IdDhShaIGIEka457QM/rWOkYINtFROlb7qAZ1jVSgqIHM+8o9oic01TpGyLbUqTqVY9dIAYoayLBSN1T36wWtsg4SkRraQyfrRNWjrpFgFDWQUbPdPXpQ31jHiEEznanz1JqyRkJR1EAGfehu09NaaR0jRjV0sC5Ub8oaCURRA5lS5l7QP/SBdQwju+sSHc1JZkgYihrIjDI3QNdosnUMY+31R52uEsoaiUFRA5mwwj2om/SldQxPbKMrdSJljYSgqIHUK3WP6TpKegPtdLVOYhocCUBRA6nmXH9doynWMTy1o27Sr6hqeI6iBlLsA3eJRlqH8Fxv3aydKGt4rIZ1AADR+Nz1dbtT09UarF10ivuGMQu8xYgaSKFF7q+6TcutYyRII12n8zm9DF6iqIHUecX9Xl9Zh0igLrpbPahqeIepbyBVPnN93OHUdEEmqJdOd/MYvcAzFDWQGivdTW5HDbaOkWBOD6mD7qeq4RWmvoGUGO/O0DjrEClxqO5TSybB4QlG1EAKLHWXul2o6dC8qq56llEMPMGIGki8se7kzN/BOwp9da+aMa6GOUbUQKKtcje5HtR0JPprRw1nLANzjKiBBJvhTsjsIyvjUVNX6c+qybgahihqILFecGfoR+sQGbC7ntRWVDXMMPUNJNIyd447ipqOxfvaVQMZ08AMRQ0k0HS3u+61DpEh83W4/uocZQ0TTH0DifO6O4GxtIFD9LiaMAWO2DGiBhLFuZvcodS0iYHaTZMY2yB2jKiBBPnZnaBXrENkWiM9rsMYVSNWjKiBxJjt9qGmjS3UEbqW8Q1ixYgaSIjx7jDNsg4BSdLvdDfPrkZsKGogEQa4k7XEOgTWOkRPqwFVjVgw9Q0kwF3uWGraKwO1p75mnINYUNSA55z7sztfZdYxsIFP1FOfUdWIAVPfgNdK3bm63zoEKrGp3tBOTIAjYhQ14LGV7jcaYB0CVWisV9WTqkakmPoGvLXCHUtNe26BfqXXGe8gUhQ14Kml7gi9aB0C1VqiX6s/VY0IMfUNeGmpO0xvW4dAjkr0lI5hAhwRYUQNeGiF60tNJ8gqHa9nGPUgIoyoAe+sdMfoZesQyFMt9dcRjKoRAUbUgGdWud9Q0wm0UsdqICMfRICiBrzi3Jmc6Z1QK3S0BlPVCB1FDXjlSj1kHQEFW66j9CFVjZBxjBrwyN3uPOsIKNLGek8dOFaNEFHUgDeedb/hnt4p0E4j1IKqRmgoasATY93ePCErJXbQcDWhqhESjlEDXvjSHUJNp8YnOlarGAUhJBQ14IGf3eGaax0CIRqkS6wjIDUoasBcmTtOn1iHQMju0L2MqREKihowd7Vet46ACFygt6lqhICTyQBjL7tfi89hOjXT+9qGk8pQJIoaMPWZ200LrUMgMp31vupT1SgKU9+AoSXuaGo61SbqXOsISDyKGjB0viZZR0DEHtV/mbhEUZj6Bsw84463joAY1NUIdWP6GwWjqAEj09wuTHtnxNYaq8ZUNQrE1DdgYoU7jprOjOk62zoCEoyiBkxcq4+sIyBGT+sppi9RIKa+AQOjXC+VWodArJroY23B9DcKwIgaiN1idwo1nTk/6Qw5RkYoAEUNxO6PmmYdAQYG607rCEgkpr6BmL3r9lGZdQiY2EjjtS3T38gTI2ogVsvdWdR0Zi3VmUx/I28UNRCrazXZOgIMvaNHrCMgcZj6BmL0sdtFq6xDwFRzTdYmTH8jD4yogdg4dyE1nXnz9QfrCEgYihqIzSN6xzoCPPCYBjGViTww9Q3EZKHrqG+sQ8ALHTVBtZj+Ro4YUQMx+RM1jTWm6F7rCEgQRtSReMn9WSXaXp3VWdtrSwUp+N251M3Qp5qsTzVZS/RHnZqCdYrTp25Hjk9jrWaapmZ8hpATijoSnd2kdf7UUDtqJ3XTTuqUuOmulW6SxukjjdPHWrzO3zfX9wlbE2uHuoHWEeCVC3UrnyHkhKKORCs3p8K/r6MdtLP20J7axvOP6PdulEZqpMZqSSVf4TxfA78Mdn2sI8AztfSJOvApQg4o6khs66q7l/Om2lP7qY86evZBneWGaKhG6bNqvq6+FnmW3Gelbmd9bB0C3jlcL/EpQg4o6kic6f6T41e2UR/10QHmR6vmuWEaoiGamuPXH6JX2cXk7FF3inUEeCjQ+9qNzxGqRVFH4kd3kvI5IlmiXjpcR2ir2D+0y917elNvaYLy+UnYU8+oNTuYHK10HfW5dQh46Vd6g88RqkVRR2aSu0+PakFe39NFh+vX6hbLWeIz3Jt6Q0PWO0UsF711uXqzc8nD/e4s6wjw1rvqyacJ1aCoI7XQ3adb8r56trUO1xHaR7Uj+QA7N0r9NbCAJyLX0NG6XDuzW8nLMretvrYOAW/to6F8olANijpyy92Dul5z8v6+RjpIR+hgNQ7xYzzaPav+mlnAd9bRKbpMW7NLydvt7kLrCPDaYO3P5wpVoqhjsdTdqZs0v4DvrKtDdaIOKnp0/ZF7Rs/qi4K+t7HO0YVqwc6kACtce82yDgGvMaZGdSjq2Cxw/9atWljQ9zbXsTpRexR07Hqxe0r36sMCU7fQxTpbjdiRFOgB93/WEeC90dqVTxiqQFHHar67WXdWeguR6rTX6To7rwu5Zrl/68E8T2j7n9b6o36nuuxCClbqtivgXABkTV89y6cMVaCoY/et+5vu0/ICv7u+TtdFapfDx3qKu1lPaEWBy2mry3W66rD7KMoz7njrCEiAmvpM7fmsoVIUtYmv3fV6SCsL/O6aOkqXVnmjhJnuGj2m0gJfv52u0MkRnXOeLbu6sdYRkAjn6U4+b6gURW3mc3ednii4TKUjdLO2reDDvdBdp7sKHrFvqyt1gkrYaYRghOtpHQEJUU9faWM+dagEz6M20y54JPhER6vQT+dL6qx+btkGv2k957bTvwus6Q56XJ/qlICaDsdt1gGQGEv0gHUEeIwRtbmx7koNKvi7O+oJdVtTrD+53+m5Al+nra7RSYykQzTTtef508hZe01VDT5/qBAjanO7BG8FQ9S9wO+eop56wknSR65bgTW9ue7UVJ3GSDpU91DTyMOMIn5dR9oxovbGYHeZxhf0nYHu0G46UD8U8L3N9Hv9QQ2p6JCtcG001zoEEuVIPc/nEBWiqD1S5h7XNfqygO8MVFdL8/6uRrpEF3Mzk0j0d8daR0DClOhLteLTiAow9e2RGsHJwWe6Q5vl/Z0u75qupfM1Q9cE1HQ07rcOgMRZpf9aR4CnGFF7aLH7h27SsgiX0Fu3qDMVHZnP3TYqsw6BxGmrL2J5xC2ShhG1h+oH1wYTdWREr95NQzUooKaj9BA1jQJ8pVHWEeAlitpT7YPngyHaMeRXbaX7NFr7UNKRcu5J6whIKH5yUBGmvr1W6v6jq/R9KK9VR39UP9WjpCPHHclQqI01R7X4jGIDjKi9VjM4O5imy1Wn6FfaVx/pLwE1HYcnrAMgsb7XW9YR4CGK2ntNgr8H43VQEa/QWv01JNiOko7FSvesdQQkGL/moTyKOhE6Bq8FL6ttAd9Zogs0ScdQ0rF5W/OtIyDBXtEyjkdiAxR1YhwWTNQlKsnre3bUWN3GtdKxesE6ABJtkd62jgDvUNQJ0iD4V/Ch9sjxq0t0uT7QjpR0rMrcy9YRkHAvWQeAdzjrO3Gc+48u1pJqvqq9HlZPSjp277h9rCMg4TbTHJ6jhfUwok6cIDgzGKNdqvoKXaRPqGkTjIZQrO/0gXUEeIaiTqROwSj9RbUq/LeGek63BBtR0yZetw6AFODXPayPqe8EG+GO0+wN/m47Pa+OlLSRL1w76whIgc76hM8w1sGIOsF6BB+p93p/c7hGUdOG3rAOgFSYpG8YQWEdFHWibRK8rovW/un3elGNqWlDFDXC4LhEC+uhqBOuJLgl+JMk6TLdHvCIPEur3FDrCEgJihrryu/+GfDS9UFNV6a/UtLGPtTP1hGQEoOtA8ArFHUqXEdJe2CYdQCkxix95joU+Kle6b7WV5qpefpe3+sHzddiSQtVuubf66iepAZqpOZqrmbaWJupjbZUM/Yi3qKogZC8Yx0AKfK2OuTx1fPdRE3SJ/pUn2uOygpaYiPXVluqo3bQDuqk2tS2R7g8CwjFKteMqW+E5rd6otqqXOzG6n29r9GaE/LSa6mDumgP9dQOqkllm6OogVB86HYp/kWANbbS55UW5BI3XIM0VJ9oVeQ5GmoP7an9tIdKKGwzFDUQinvcudYRkCrfqEW5apzgXtUgjdLy2NM00QE6UAdVkAnRo6iBUJzmHraOgFR5XkeuLcUyN1Iv6kXNMM4UaGcdq+O0BXUdK4oaCMX27lPrCEiVy3RzIEmj3WPqr++s46wj0J46Xn21GXUdE4oaCMFC17TAc22BivXU43pcj+kz6yCVqKmDdZYO5GSzGFDUQAiGu72tIyBlasjJ//3zFvqdTldLyjpS3EIUCMEE6wBInbIE1LQ0U1eprY5zY5MQNrEoaiAEFDWya5We1a7q6V5xjrqOBEUNhOAT6wCAsRE6XF30uCulrEPHMWqgaGWusRZZhwC8sJ2uUV/V4Kh1iBhRA0WbRU0Da0zW8eqi/kyDh4iiBoo23ToA4JVJOla7ayRVHRKKGijaNOsAgHdGq4cOc19Q1iGgqIGiMaIGKvKqttfVbjFlXSSKGigaRQ1UbKn+qs56g6ouCkUNFO0L6wCAx77UQTrWzaWsC0ZRA0WbbR0A8Fx/ddIjVHWBuI4aKNISV986ApAIB+pBbc4V1nljRA0UaZZ1ACAh3lBXvcLoMG8UNVAkihrI1VwdofPdUso6LxQ1UKRvrQMACeJ0l7ppMlWdB4oaKNL31gGAhJmi3TWAqs4ZRQ0Uab51ACBxFqqv+vGkrRxR1ECRKGogf0436RAtpKpzQFEDRaKogcK8qR6aSVVXi6IGivSTdQAgsSaqu8ZS1dWgqIEiLbYOACTYt9pHL1PVVaKogSL9bB0ASLTFOkoPUdVVoKiBIi2yDgAkXKnO0O1UdaUoaqBIFDVQLKeL9C+quhIUNVCk5dYBgBRwulTXU9UVoqiBIq2yDgCkxFW6maquAEUNFImiBsLST/dQ1eVQ1ECRKGogLE7n6QGqegMB7whQnJquzDoCkCIlGqDDA+sUPgmcnncPaoaaa0d1VVdtr3q8Qd6b48ZpnD7SOC1QB12gE9hmkVrkZmqm5ugH/aAf1/yvTNJPcpI+t44HpEx9vaOd2autFTzmTlr/L7SlOqqTOqqTOqsRb5VHvnCry3mcvtvgX17Qr9lSoVrqJmuyJmmyPtfX+tE6DpAxm+t9bcFebY1gNze68n9UO3VVV3XVjmrDW2aizE3TL/VceV0cqlfYPiFY5sZptD7QGH0hprMBSzvoPYaKawSN3YKcvrC5umonddfuas1bF7lV7tM15fxxTjeo3FafsVWKsNi9o0EaofFaaR0FwBq/0kDVZM8mKVDeZ5O1VHftru7aRfV5C0O10k3UWH2ojzRBy/L6zpaazbYogHMf6k0N1kitsI4CoJw/6Xr2bJKCwBV63neJttfu6q7u6qgavJkFK3VTNFZjNVbj86zn/2mlWWyBvJS5URqgAZppHQRApQK9pMPYtynYxM0r+kUaa1ftqZ7aQw14S3M23Y3VGI3VuBDuFd1NH/LO52yse0TPa451DADVaqIx2jrze7dgDzcqtBcr0U7qqb3UQ5tk/o2tjHMTNUzDNFzfh/iqJ+ox3vEczHeP60FNsI4BIGdd9L42yvj+LbjbnRv+i6qjeqqXemnLjL+9/+PcJA0NvaB/MVj7805X4z13h17iARpA4pyvOzK+fwuWuJ4aF9nLt9Ze6qle6pTZo9irC/odvRNJQa/2Wz2R0Xc3N6vcc/q3xljHAFCQQAN1UKb3cYHT1+4wfRzxYpppH/VRH7XP0Js9372p1/SWij8HoGrH6NHMTwxVbpG7R3foa+sYAIrQQhMyfUA1cJKWuet0ZwinNFVvK/VRb+2n5il+y50br9f0mj5QaeTL2lpX66QUv5fFWeLu0j8i/0UJQPSO0IsZ3tOtfSjH9+423aHcbn5SrBraRYfoYO2sIFVv/UI3SK/rNX0Ty9K66XIdze0AKrHU3ae/l7vVKoCkelinZHZvt97Tsxa4O3VrhMdSN9RCB+lgHZCC28RNdgP1ut6N7b5W+6qfDkj8uxYV5x7XFZptHQNAiJprcmanv8s95nKxu0//ivUa01raW0fqSG2eyE3wkRugAZoS2/Jq6Aj1026JfK/i8b67UKOLfxkAnjlBj2d0z1fh86iXuYd0s76MNUgN7aGjdFRiLuhybowG6LlYH3FYWyfoj+qYkHfIwmx3uZ7M/664ABLhDf0qk/u/oLKd2kr3hP6mqbEH6qa+OsHrZ3WVuVF6Ts/HfPPJ+jpTl/BAlCqUuXt1hRZaxwAQma00UfUyuBcMqhp9lLmBuk4fxh6qhvZQX53o3bnhZW6k+mtA7Ec/G+h0XaEWnr0bfpnhfqeh1iEAROwaXZvBPWFQ3TShcy/rBpObRdTV4TpRB6qWF5tlpHtczxlc6tNMF+gCNfXiPfDVKnez/lrwA00AJEc9TfF6xjUa1Rb1au+5m/SqScDNdKrOVDvDDTPTPaUHNM1gyRvrPF2kJpn7oczPl+5EjbAOASAmWbwTY45FLUnD3Q16yyRkDfXRWTpMJTFvngXuaT2mkSYnJ7XUZTozk0dj8vOoO18/W4cAEJtAI7RHxvaMeRS1JI1xN+hlo7NqN9cZOjO2SY8P3b16SotN1rSt/qgzVCdjP4r5W+DO0VPWIQDErLtGpexmWdXJs6glaYL7m55VmUncWjpGl2iXSDfRYve07jN7hMPWukIneXJc3m/j3VH6wjoEAAMv6ohM7SMLKGpJmuKu19Mx3Mu6YnvpYh0eyfO4ZrnbdX9MN1Itr6P+pN9wU9CcPOHO1BLrEABM7KhxmXoiY4FFLUmfuev1lFlZb62LdFqox3A/dv/S07HdBHRD2+gq/ZaSzskqd5lutQ4BwNCz6puhvWURRS1JU931etKsrDfT5To7lEc8DnM3apDRWkjtdJVOjP1UuaT63h2jd6xDADDVSRMyNLApsqglaZq7Xk9qldEKbK5+OlN1i9hgo9xVetsovdRWf9YpHJPO2TR3sKZbhwBg7nGdkJn9ZghFLUlfur/pQbOy3lSX6IKCRtYT3V/0nNm9odvoDzqrqF8ysuYDd7jmWocA4IEd9HFmzv0Oqaglabq7QY+blfWWujXP8wC/df30qFlJb6wrdS6XYOVlgDtJS61DAPDEazooI3vQEItakqa6q9Xf6NIt6RDdpvY5bbiV7k5dZ3Z2d31drMtS8BTueN3uLjb7yQLgn301JCN70ZCLWpLGuz9roNHq1NXlurzaSfAR7ixNMkpYS7/TVTxgI29/c1daRwDgmTER31XDFzXCf8muwavBe9rLZHWW6Tp11jtV/Pax0v3Z7W1U0zX0G03WXQE1na8/U9MAyvmHdYCYRDCi/sVgd4XG2qyUfq+bKzz+O8WdZJRJ6q2b1I2Kzptzl+rf1iEAeKhEX6llBvaqEYyof9E7GK3+6miwUk63ay/NKvc7yItuF6Oa3lVDNCigpvPn3HnUNIAKrdKD1hFiEWFRS0FwTDBRD6qtwYqN1s56d72qvskdbfKQjS30uD7QvpR0QS7RPdYRAHjrvyqzunQnRpEWtSTVDE4LPtOt2jj2VZurAzRgzSYsc//n+hmcM9xIN2qKTgiycrVf2P7sbrWOAMBjX+kN6wgxiLyoJalOcGEwXf20Ucwrt0zH6UEnOXeuHoh52VKJztY0XRGEcYvTbLrR3WAdAYDn7rMOEIMITyYr72v3Zz0e87i2pp7QON0c6zIl6WD9Q52o6CLc7i60jgDAeyWarU1Tvq+Ntaglaby7TINjXWKN2Ke8u+if6pPyH5yo9XfHc3sTADm4S+emfH8by9T3uroGg4JB6hrjEuPd3W+sWzWOmi7SaHcqNQ0gJ09bB4hc7CPq1crcAP1RX1qvfcjq6fe6kluDFm2G25NHbwDIUaAv1DbV+93YR9RrFhv0DSbp72psvf6hCdRXn+rvATVdrPnuYGoaQM6cnrOOEDGjopakesHlwVSdoxLr9yAE++lDPRuk+3e6eKx0R2qqdQgAifKsdYCIGRa1JG0a3B1M1MHW70JRttWzejvYiZIOxSV61zoCgIQZq+9SfdsT46KWpA7BwGCQOlnHKEgz/V2fqC8lHZIn3J3WEQAkTpnetI4QKQ+KWpJ6B+N1a8KOWNfWBZqhy4Pa1HRIPnZnWkcAkEivWweIlNFZ3xWb6/6sBxJxWU6g4/Q3bUlFh+hH1y111wEAiEczzVXN1O6RPRlRr7ZpcH/wofa2jlGtPTVKTwXUdLjOpKYBFOgHvW8dIUJeFbUkdQ2GBf21lXWMSrXVs3pP3SnpkD3o0n6BBYAoDbUOECHvilqSjgmm6FY1so5RTi1doInqy7OwQjfDXWQdAUCijbAOECGvjlGvb467XE/In3wH6zZtTUVHYKXroTHWIQAkWmPNT+1Rai9H1Ku1DB4Lhmp76xiSpK30kgYG1HQ0bqSmARRpgSZaR4iMx0UtSXsH43WrGppmqK0L9IkOp6QjMsX9zToCgBR4zzpAZDwvaqkkuDD4VMeYLf8wTdZtQX1qOiJl7jQttw4BIAVGWQeIjPdFLUmtg/7BEG0X+3Lb6xW9HLSjpCN0e6ovqgAQnwnWASLj8clkG1rubtbftDSmpdVTP12mupR0pL5ynbXIOgSAVKilRUrnnSITMaJerU5wVTBJh8ayrF/rU10VUNNRu5SaBhCSlZpiHSEiCSpqSdoqeCV4OeLbobTQI3qBR1bGYIQbYB0BQIp8Yh0gIgkrakk6LJiky1UzktcOdJIm6mRKOgZl7iKPrpIHkHwUtUc2Cv4evBfBgzHba5AeDZpT07F4UGOtIwBIlanWASKSyKKWpN2DcfqzaoX2ejXVTxO1PyUdk0XuKusIAFLmC+sAEUlsUUt1gr8Go7VjKK+1rd7T3zh5LEZ36lvrCABS5kvrABFJ0OVZFVvpbtD1Ki3mLdDv9G9xS5M4LXLtNM86BIDU+VFNUrgvT/CIerVawbXBe9qm4O9vq8G6jzuPxewWahpABL60DhCJxBe1tPp49f8V9J2/0QTtR0nHbIG7xToCgFT60jpAJFJR1FKD4D/Bs2qc3/foIT0ZNKKmY3e7frSOACCV0jlXl5KilqS+wcfaI+ev7qYPdSolbWC5u9s6AoCUmm8dIBIpKmqpbTBMFyuX9j1fo7QtNW3iSc73BhARijoBagf/Dl5Soyq/pq4e0B1BOm/dngS3WgcAkFoUdUIcFryrdpX+a2sN1+mUtJm3XHofRQfAGkWdGF2C0dq/wn/ZSx9pV2ra0B3WAQCk2E/WASKRyqKWmgdv6Ixyf3u03tDG1LSh2e516wgAUmyFdYBIpLSopZLgP7pmvb+5QM9qI2ra1CNF3UMOAKq23DpAJFJb1FIQXBv8c+2fbtZtQQ1q2pRzD1lHAJBqjKgT6A/B6ntg3aDLKGlzwzXdOgKAVEtnUZdYB4jaRcEi53QlNe2Bh60DAEi5dE59J/7pWUiKlW4zbh0KIFJtNDOFw7KUT33DH4OpaQAR28g6QCQoasRkgHUAAKlHUQMFK3UvW0cAkHp1rQNEgqJGLIan9PFzAHxCUQMF445kAKLH1DdQsEHWAQBkAEUNFGiu+9g6AoAMqG8dIBIUNWIwWFyvDyB6La0DRIKiRgyY+AYQh82tA0SCokYMhlsHAJAJFDVQkHnuc+sIADKBogYK8r51AAAZwTFqoCAfWAcAkBEtrANEgqJG5EZbBwCQCY3VIIXPzqKoEYOx1gEAZEJH6wARoagRsdmOx1sCiENn6wARoagRsUnWAQBkxPbWASJCUSNin1oHAJARFDVQEIoaQDwoaqAgFDWAODRRq1Se801RI3IzrAMAyIS0jqcpakRsufvOOgKATNjDOkBkKGpEahYPuAQQi17WASJDUSNSM60DAMiEgBE1UJivrQMAyITttElKTyWjqBGx2dYBAGRCT+sAEaKoEanvrQMAyIT0HqGmqBGxn6wDAMgEihoo0HzrAAAyoLPapvYINUWNiPHkLADRO8I6QKQoakSKogYQPYoaKNjP1gEApF5L7WIdIVIUNSK13DoAgNQ7XEGKj1BT1IjYSusAAFIv3RPfUsCdmBGlJm6BdQQAqdZIc1WHETVQKKa+AUTruJTXNEWNiDH1DSBap1kHiBxT34hUiSu1jgAgxTpqcsrH04yoEbG61gEApNqp1gFiwIgakdrYcRNRAFEp0VdqyYgaKMZG1gEApNivMlDTFDUiRlEDiM7p1gFiQVEjUnWsAwBIra1Sf6uT1ShqRIoRNYCo/EE1MzDxTVEjYg2tAwBIqeYZuIJ6NYoakdrcOgCAlDpP9TIxnqaoETGKGkAU6ugc6wixoagRKYoaQBROUYuMjKcpakSspXUAAClUokutI8SIokakKGoA4Ttd22RmPM0tRBGxaW5b6wgAUqaupqpNhoqaETUi1YofMQAhOy9TNc2IGpFr576wjgAgRRpqujbNVFEz3EHEtrcOACBVLstYTVPUiBxFDSA8m+gi6wixo6gRMYoaQHh+1t0qzdgxW4oaEetsHQBAiixTP/XStExVNUWNiG2nmtYRAKTKKHXVbc5lpqwpakSsbrCNdQQAKbNEF+lgzclIVVPUiFwP6wAAUugNddGbmahqihqR62kdAEAqzddB6ufKUl/W3PAEkZvhtraOACC1DtLjapbqK6spasSgjZtlHQFAarVRf3VPcVUz9Y0YcJQaQHS+1j56LMWjTooaMehlHQBAqi3TKbo2tVXN1DdiMMlx2xMAUfs/3aOSFE6BU9SIxbZumnUEAKnXWwPUKHVVzdQ3YnGodQAAGTBYPTUrdeNPihqxOMI6AIBM+ER766uUVTVT34hFqWuh761DAMiELTRU7VI0Ac6IGrGoGRxiHQFARszUvpqRolEoRY2YMPkNIC4zta+mp6aqmfpGTJa4FvrZOgSAzGijIdo6FRPgjKgRk3rBsdYRAGTI19pXX6diLEpRIzanWQcAkCmzdLB+TEFVM/WNGHVyk60jAMiUvfWm6iR8ApwRNWJ0inUAABnzjk5W0p9YzYgaMfrOtdFK6xAAMuZc3ZXoMTUjasRos+BA6wgAMudu3ZnoMSlFjVidbR0AQAZdoncTXNVMfSNWznXRROsQADJnM41V64ROgDOiRqyC4A/WEQBk0Hfqq+UJHZkyokbMVrp2mmUdAkAGna17EjmmZkSNmNUKzreOACCT7tVDiRybMqJG7Ba6LbTAOgSADKqnceqQuFE1I2rErlFwhnUEAJm0RCdpZeLGpxQ1DFyuhtYRAGTSGF1vHSFvFDUMbBpcYB0BQEbdqFEJG1NzjBomFrj2mm8dAkAmtdN4NUzQkWpG1DDROOhnHQFARn2uS60j5IURNYwscx000zoEgEwKNET7JGZMzYgaRuoGV1tHAJBRTucn6OxvihpmjuLcbwBGJunf1hFyxtQ3jLzrTtd06xAAMqueJmqrREx/M6KGgSWun9uHmgZgaInOs46QI0bUiN0Qd4a+tA4BAHpBv07AmJqiRqyWukt1j/ipA+CDbTVJJd5XNVPfiNE0t4fupqYBeGKqHrKOkANG1IjNS+5U/WQdAgDW0VLTVM/zMTUjasRilevnjqSmAXhmju62jlAtRtSIwUx3rD6wDgEAFWiuz9XI6zE1I2pEbrTbjZoG4Kn5+qd1hGowokbEnncnaql1CACoVEPNVBOPx9SMqBGp21xfahqA137W/dYRqsSIGpEpdRfqLusQAFCtVvpctb0dUzOiRkSWuMOpaQCJMFv9rSNUgRE1IrHEHaYh1iEAIEddNF6Bp2NqRtSIwGJ3KDUNIEEmaJh1hEpR1AjdAtdHQ61DAEBebrEOUCmmvhGyn9yBXDUNIHFqaKZaeTn5zYgaofrJ7U9NA0igMj1pHaESjKgRomXuAL1rHQIACrK9JjKiRrqVuhOpaQCJNUnjvBy7UtQIzcUaYB0BAIrwqHWACjH1jZBc666zjgAARdlEs1XLu+lvRtQIxX3UNIDEm6e3rCNUgKJGCIa6860jAEAIXrUOUAGmvlG0r90ummsdAgBC0FKzvLuVKCNqFGmZO5qaBpASc/SxdYRyKGoU6XyNsY4AAKEZaB2gHIoaRbnbPWAdAQBC5F9Rc4waRfjA7aUV1iEAIEQ19K028eooNSNqFGyxO4maBpAyZRpkHWEDFDUKdommWUcAgNCNsg6wAYoaBXrD/cc6AgBEYKR1gA1wjBoFmee66FvrEAAQgRL9qAYeHaVmRI2CnENNA0ipVRprHWE9FDUK8IjjOVkA0suvo9QUNfL2g7vMOgIARMivo9QUNfJ2heZZRwCACPk19c3JZMjTGLe7yqxDAECkflBTb04nY0SNvJS6s6hpAKk3xTrAOihq5OUufWQdAQAiR1Ejob5zV1tHAIAYTLYOsA6KGnn4qxZYRwCAGPg0ouZkMuTsS9eBh3AAyIRtNJWTyZA8V1PTADLic63yZhzLiBo5muh25HxvAJkxR5t7MqZmRI0cXUlNA8gQf55nQFEjJx+4V60jAECMvrMOsBZFjZxcKw6SAMgSRtRIlInuTesIABArihqJ8i/G0wAyhqlvJMi37inrCAAQs7nWAdaiqFGtO7TcOgIAxGyxdYC1KGpUY4m7zzoCAMRumXWAtShqVOMRzbeOAACxW2odYC2KGtX4r3UAADDgzyE/ihpVmuTGWUcAAANMfSMhHrIOAAAmKGokwir3pHUEADBBUSMR3tQ31hEAwESpdYC1KGpU4WHrAABgpI51gLUoalRqoXvFOgIAGKllHWAtihqVetOjyxMAIF6MqJEAPIEaQHbVtg6wFkWNSpS5160jAIAZpr7hvfc1zzoCAJhpZB1gLYoalWDiG0CWNbUOsBZFjUpwxjeALKOo4bk5bqJ1BAAw1MQ6wFoUNSo0wjoAAJhqZh1gLYoaFRppHQAATDH1Dc8xogaQba2tA6xFUaMCS93H1hEAwNQW1gHWoqhRgQ+0wjoCAJhqYx1gLYoaFWDiG0C2baz6gXWGX1DUqMBY6wAAYMqf8TRFjQpNtg4AAKa2sg6wDooa5axwM6wjAICpTtYB1kFRo5zpWmUdAQBMbWcdYB0UNcph4htA1jGihtcoagDZVkMdrCOslwbYwBTrAABgqp028ubiLIoaFZhqHQAATO1sHWA9FDXKmWMdAABM7W4dYD0UNTbg3FzrCABgyq+iDpx1AnhmntvUOgIAGKqjBarDMWr461vrAABgqqtXNU1Ro5zvrAMAgKke1gE2QFFjA5xKBiDb+lgH2ABFjQ3Msw4AAIbqqJd1hA1Q1NjAz9YBAMDQnh49iXo1ihobWG4dAAAM+TbxTVGjnGXWAQDA0AHWAcqhqLEBRtQAsmtLdbOOUA5FjQ0wogaQXUcr8OwINUWNcihqANl1tHWAClDU2ABFDSCrWqm7dYQKUNTYQJl1AAAwcpRqeDfxTVGjnFrWAQDAyMnWASpEUWMDFDWAbOqsXTwcT1PUKKe2dQAAMHGGdYBKUNTYACNqAFlUWydYR6gERY0NMKIGkEWHaRMvJ74papTTyDoAABj4vXWASlHU2EBT6wAAELtu2tvT8TRFjXIoagDZ8wfrAFWgqLEBihpA1rRSX+sIVaCosQGKGkDWXKBa3k58U9Qop7l1AACIVXOdYx2hShQ1NtDaOgAAxOoyNfR4PC0FzjoBvFPfLbGOAAAx2Vife17UjKhRTivrAAAQm36e1zRFjQq0sQ4AADHZ3PPj0xJFjQpQ1ACy4gbV83w8TVGjAltbBwCAWOykU6wj5ICiRjnbWQcAgFjcphrej6cpalSgk3UAAIjB8eqVgJrm8ixUYKVroBXWIQAgUvX1qbZIRFEzokY5tQKOUgNIuxsSUtMUNSq0g3UAAIhUd51vHSFnFDUqsKt1AACIUInuVc2EjKcpalSou3UAAIjQFeqamJrmZDJUaIlrrFXWIQAgEl31vuokqKgZUaMC9YLO1hEAIBJ19WiiapqiRiWY/AaQTrdqh0TVNEWNSuxrHQAAIvBrnZWwmuYYNSrxvdtMZdYhACBUrTVezRNX1IyoUaGNgy7WEQAgVLX0dAJrmqJGpXpbBwCAUN2lHgmsaYoalaKoAaTJ/+l3iaxpjlGjUsvdplpoHQIAQrGbhifsoqz/YUSNStQJDraOAAChaK3nE1vTFDWqcKR1AAAIQUO9qlaJrWmmvlGFRW4TLbMOAQBFqaVXdUCCa5oRNarQIOhjHQEAinRfwmuaokaVTrAOAABFuU6nJbymmfpGlZa5lvrROgQAFOhC3Zr4mmZEjSrVDY6zjgAABTpdt1hHCAVFjSqdah0AAApyov6jIAXjaaa+Ua3t3afWEQAgT8foKZWkoqYZUaNa51oHAIA8Ha8nU1PTjKhRrSWujX6wDgEAOfud7lWN1NQ0I2pUq15wqnUEAMjZebovVTXNiBo5+MJto1LrEACQgz/rr6kqaYkRNXKwVXC4dQQAqFZN3ZPCmmZEjZx85HYWPykAfFZfT+mwFNY0I2rkZCceeQnAay00LKU1zYgaORrjdrOOAACV2EEva8uU1jQjauRo1+Ag6wgAUKHjNCrFNU1RI2fXKcWfAwAJVaJ/6umgfqp3TxQ1crRrcLx1BABYz8Z6XX9IdUlLHKNGHr5yHbXMOgQArLGvHlXr1Nc0I2rkoW1wkXUEAJAk1dLfNNiLmi6NfLxLUSMPV6qFdQQA0JYapn6BDzcKneRaqp9bGGlZU9TIQ8PgRusIADIu0FmaoD09KGlpiTtWc3WTOugOtyKysuYYNfLi3H4aZh0CQGZ10P3ay4uSlqT/cw+s/e+2uk4nRfI4EIoaeZrqduSUMgAGSnSubpQ/l2I9647b4G921j3aNfR8TH0jT9sG/awjAMigvfWhbvPoiukZ7nfl/u5D7ak/uJ9DHgEzokbelrudNNk6BIAM2VI3q683FS1Jy11Pja3k31rrVh0dYlpG1MhbneBx1bYOASAj6ukafepZTUvnV1rT0iwdo2Pdj6GNgylqFKBbcJV1BAAZUFcXaIauDTbyrKbvdf+t5iv6q5tGhFTVTH2jIGVuXw23DgEgxWrrVF2tVp5VtCSNcvtqeQ5fV1OX6q+qVfQaUNQo0AzXVYusQwBIpXo6Rf20hYclLX3jdtY3OX91Dz2nFkWuB0WNgj3uTrKOACB1Wug8na2NvSxpaYXbVyPz+o42elHdilobihpFOMfdax0BQIp01QX6rep4WtKSdJp7OO/vqaeHdGwR60RRowgr3T55/m4JABVprON0knp6XNGS9Fd3dUHfF+iPurHgu5ZR1CjKV25nzbcOASDBSrS/TtGRqut5SUtPuhNVeGeepAdVUtA6UtQo0pvuEJVahwCQQHXUW0frCDXzvqIl6V3XJ6dzvSt3lJ5S7QLWlaJG0e50v7eOACBRWqi3DtShapyIipakqW7PEGYPD9Tzyv+acIoaIbjA3WEdAUACNFRP9VYfdVaQmIqWpG9cL80I5ZX21itqmOe6U9QIQak7XK9ZhwDgqRrqpO7aXburUySPgYzaD25vTQzt1XrqrTxH1RQ1QvGz66kJ1iEAeKOW2qqTOmk7ddJ2Hj2aMn+LXG99EOorHqbn8zqtjKJGSMKbGgLgtxb6dp0/1VYTNVVTNVUzNVMbtVEbbakWqpngcv6f5e4QvR36q56qB/OY/KeoEZrPXS/NsQ4BIHKTtJGaSKqpRqko48qtcn31YiSv/EfdlPN7x9OzEJp2wZtqZh0CQOQ+01ZB06BpkP6aPjmimpZu1m05j5MpaoSoczBQDaxDAIjYJ9YBYrHKnaCnInz9SzUkx6qmqBGq3YM31Mg6BIBIZaGoV7rj9GykS1ilY/VFTlVNUSNkPYLXqWog1SZZB4jcCtdXz0e+lPk6VstyqGqKGqHbM3hLTaxDAIjMl3KpPg95uTtKL8WypLE6N4evoqgRge7BIDW1DgEgIks11zpChBa4AzUwtqU9pIer/aWHokYkdgneUxvrEAAi8pV1gMh86/bVsFiXeKG+qqaqKWpEpFPwvrpYhwAQiS+tA0Tkc9dLH8W8zIU6SWVVVjVFjci0DIZqT+sQACIwyzpAJMa63TXdYLnvqurHGlHUiFCzYLB+bR0CQOiKf+Cjfwa6fTXPaNlXaEoVY2qKGpHaKBigK5Xy2xcBmfODdYDQ/dMdoUVmS1+qM6o4k56iRsRqBDcET6uedQwAIUpXUa9wp7vLVGqaYaQeqfTfKGrE4NhghNpahwAQmjQV9ffuAD1kHULS5fqpkjE1RY1YdA0+UG/rEABCstA6QGjGu130jnUISdJcXVPJv1DUiMlmwVu6VbWsYwAIwQrrACF51PXw6Jrwu/RxhWNqihqxCYILg8FqbR0DQNHSUNSL3cnuFC2xjrGOUl1c4d9T1IjVXsFHOso6BIAiJb+oJ7vuesw6RDlDNbSCMTVFjZhtHAwInlRz6xgAirDcOkCRHne7efoMsIqOU1PUMPCbYKKOsA4BoGBJfnjWD+54d5LhNdNVe1dvl3tzKWqYaBG8GDyuFtYxABSktnWAgr3pdtAz1iGqdG25v6GoYeaEYIouUIl1DAB5S2ZRL3HnuYM0xzpGNd7T4A3G1BQ1DDUObgvGqId1DAB5SmJRv+t20t2JmLS/ZYM/U9Qw1jV4V0+onXUMAHlIWlH/6M5ye2uqdYwcvaHP1/t9gqKGuSD4bTBF92lz6yAActTAOkBeXnFddH8ixtKrlem+9f5MUcMLtYIzg6m6Tk2tgwDIQXI+qV+5Q9zhiXt+9oNats7vFRQ1vNEguDqYqVvVyjoIgGo0sw6QkyXuJtdZr1nHKMD3enadP1HU8EqD4MJguu7hmDXgtSbWAarl3OOug/p5e710df67zn9T1PBO3eDsYJpe0cH8eAKe8n3q+323h05K3IT3ukZoztrJb/aE8FKN4NBgYDBdl2sT6ygAyvH51M+p7ni3pz6wjlGkMg1Y+98UNTy2VfD34BsN0kkJO8cUSLu21gEqMdOd5bbXMwk6w7tyz639ryANq4P0+9m9oKc0NPGPAgDS4TNtG1hn2NAcd4P+m4Lnev2ihmZp80CiqJEoP7u39Kpe01zrIECmBVqsjbwq6pnu37pfS61jhOxOnUdRI5nK3Gi9reEaocXWUYBM2kzfelTTn7ib9YxWWseIwMEaSFEj2Va5sXpH72ucZlpHATJlbw3zpKiHuZv1RiqOSFekkearJBCPLkJylQS7a3dJ0nw3TuM0XtM0TQutYwGpt511AElL3dO6W2OtY0RqoT7SrqKokQrNgz7qs+a/v3VTNU1fa46+0Tf6Rt+ptILvqKmG+sk6NpBQnYyXP93dq4f0g/XbEINh2lVMfSMDfnYL9bN+1gI5NVRDNVITNQxWucZaYh0NSKRB6m009b3SvaZ7NEhl1m9BTFYfpaaokVk93EjrCEAizdUmBkU91j2mpzTPeuVj1Ug/qGbA1Dcya1dR1ED+2sde07Pdc3pY461X3MBCTVcHjlEju3axDgAk0m4xLusr94Ke14jMTHWXN4GiRpbtaR0ASKTdY1nKF+5l9dfI1F56latJ6ktRI7vaBW3dV9YhgMTpHsMyznT/sV5NT3wiHsqBTNvHOgCQOA3VLYalDLVeTW9Q1Mi4fawDAImzr2pFfirZQjfDejW9MUNLHUWNDDtAntwHEUiMPsW/RLXGZf7I9P+U6WtG1MiylkFX6whAwvSOYRnjrFfSK3MoamTbIdYBgERpp44xTEONt15Nr1DUyDiKGsjHUbEshRH1uihqZFx3tbWOACTIMTEsY4mbYr2aXvmGoka2BcHR1hGAxGgVy13Jxlf4xLvsYkSNzDveOgCQGMcoiOEI9XDr1fTMQooaWbdr0N46ApAQp8aylGHWq+mZpRQ1cKp1ACARdlLXGMbTK9171ivqmWUUNXAGt7wHcnBaLEsZrcXWK+oZRtSANg8Oso4AeK+OfhvLcoZZr6h3KGpA0pnWAQDvnaDmsdxxl8dxbGipAu6oCjjXSVy5CVTlY3WJoahXuKZaYr2qntmCETUgBcHvrSMAXusTS01L71PT5dSlqAFJOkXNrCMAHrs4puUMtF5RD9WhqAFJqh+cZx0B8NbOOjCmJb1ovaoeYkQNrHGJmlhHADx1bSx3JJMmuanWq+qhjShqYLUmHKcGKrRrbE+Ze9F6Vb3E1Dew1kVqbB0B8FBc42npBetV9dLGFDXwi2ZBP+sIgHf21cEx1fRXjudQV2Rzihr4n4t4OjWwnhr6R2zLelHc16Mim1HUwP/UDW6wjgB45QztHNN4WnrJemU9tRl3JgPW5VwPjbIOAXiisaZq05iK+mu3lUqtV9hLrzOiBtYVBPfwLC1gjRtiq2npUWq6Eq0YUQMb+oP7t3UEwAPdNVI1Yipq57bVdOsV9lINLaaogQ0tcttrpnUIwFhtfaROsY2nh7u9rVfYU+01PWDqG9hAg+ABxbZ/Ajx1RYw1LT1kvbre6ihxjBoor3dwjnUEwNTOujLGpS1yz1mvsLe2E0UNVOhmtbeOAJhpoKdVO8bx9LNaZL3K3mJEDVSifvCkaluHAIzcrq1jPfrzoPUKe2xnUdRAJXYL/m4dATBxnE6LtabHuhHWq+ythtpBFDVQqYv0a+sIQOw66P6Yl/gv61X2WHfVDChqoFJB8KC2tg4BxKqxXlKjWMfTMzmRrAq7S6KogSo0DV7h0ZfIkEAPqEPM1ybeqlXWq+2xHpLEDU+Aqr3ifq0y6xBALK7T1THX9AK3hRZar7a3ammeGjP1DVTnsOAm6whALE7RVbEv8z/UdBV6qnEgUdRAtS4NLrKOAERuH92nIObx9Ep3h/Vqe+2wNf9PUQPV+peOsY4ARKqzXlSd2O+c+yR31a/SoWv+n2PUQA6WuUM0xDoEEJH2Gq6Wsdf0CredPrdedY910JQ124QRNZCDusHL6mUdAohEGw02qGnpAWq6Soev/S9G1ECOFruD9K51CCBkm2qYtjOo6WVuG82yXnmvfawujKiB/NQPXl5z+wEgLTbT2yY1Ld1BTVdpp7U1TVEDeWgSDFYf6xBAaDbX2+psUtOL3D+sV95zp6zz3xQ1kIf6wSvcARwpsaXe1fYmNS39U/OsV99rJTp+nT9R1EBe6gTP6CTrEEDRttN7am9U0/PcLdar77lDtdk624aiBvJUO3hE11iHAIqyp4arlVFNS1dwP7JqXLjenzjrGyjIw+5MrbQOARSkrx5VXbOaHuu6c//8Ku2ssettHUbUQEFODd7QxtYhgAJcqWcMa7rMnU1NV+OSDf7MiBoo2Cx3pMZahwDysJHu0SlmJS1J97pzrN8Ez7XW56rFiBoIR+vgHf3GOkQc62kdgLUMydb6wLimv3d/sn4TvHfxBjVNUQNFqRc8GdyvjaxjROoIjbeOEIvxOsI6QsQO1RjtYFrT0pX6wfpt8FxLnV3u7yhqoEi/C0ark3WIiNTVnXpBzY137vFoHrygO1XXOkZE6upWvawmxltytHvA+o3w3tWqV24rcYwaCMESd7nuUto+TbvqYXUKpGzsKFwgSZ+6UzXGOkroOutJ87G0tNztoonWITy3jSaVm/hmRA2Eol5wRzBYW1rHCFFt3aCRa2o6SzoFI3WDalvHCFENXaTRHtS0dA01Xa3rK6jpbPyiDMTkZ3e57kvFpSc9dc9694DOwo7CrbO+E905es86UCh20H/U3YOSlka5Xiq1DuG5XTRaQQVbixE1EJqGwd3BGO1mHaNITXWr3jF6VIMvOgfD9Yg2sY5RpFq6XGM9qekl7lRquho1dHuFNU1RAyHrFozU7WpqHaNAJTpHU3VhUMOLnbulIDg5+FTnqMQ6SMGO1hT9PajtyZa8QlOtI3jvLO1RydbKwowWELsf3U26TcusY+Spt/61zjNw15WFHYWrcM0/c1epv3W0vO2kW7S3JxUtSUNc79Sdahm2zTRZTSvZZoyogQg0Df4eTNLxCfqA7anBGhR08Wjn7ocOwbPBYO1pHSMPW+sRjfWqphe6M6jpav270pqmqIHItAueCj7RbxLwIdtNr2lEsL9Hu3a/7B+MCF5LxLkH7fWQJutkzw5d/E5fWkfw3q/02yq2WRZmtABTk90/9KSWW8eoxK/0R+1X7W49CzsKV+27MMTdrDetY1ZqR12i36rEq4qWpNvdhcW/SMo104QqHzqahc8fYO47d4/u0VzrGOvZSMfrAnXNaceehR1F9UUtSePd7XpaS63DrqeGDtbFOfy6ZWGU25vHwVbrWfWtcutl4fMHeGG5e0EPaIgX11l30Fk6tYpjYhvKwo4it6KWpB/dw7pPn1kHliS10ck6VVt7WdLSPNdNs6xDeO8kPVrN9svC5w/wyBfuET2jKWbLb6bjdWKll4FUJgs7ityLerVR7nE9bfiIiQY6TKeqt/w6Hr2uMnegBlmH8F5bfazGFDXgnwmuvwZocqzL3ESH60j1Vp0CduxZ2FHkW9SStNwN1gt6WfNiTdpUh+koHaCNvK3o1a52f7WO4L06Gq7dOEcE8NcX7g29pqFaHOlSaqqbDtCvtKdqFrxjz8KOopCiXq3UjdSbekvjIr73Vk3tot7qrR4V3g/aNwPd4V4c5vHbf3VGDtsyC58/wGur3Di9p+F6X9+F+rp11E17qKf2VrOid+tZ2FEUXtS/+MG9o/c0SuNCPse/oXZRd+2hvcwfU5m7j10v/Wwdwnvn6G5O5gSSZY77SB9pgqZpWsGj7BbqoC7qoq7aoaBJ7oplYUdRfFH/Yrn7ROM1QRP0mb4t8DVK1E6dtJ22007aroi5EBuz3e6cRFatHhqi3G7xmoXPH5BAs93nmqVv9bW+0w9aoJ+0QEslLdFySbVVX1IDNVYjNdamaqUWaq2ttLUaRLJLz8KOIryiXtciN11faJa+1WzN1QIt1AItkrRYKyTVUx1JDVRPTdf8r6XaqK1aq3WOu3Af/ez20njrEN7bSiPVIsdtnIXPH4AiZWFHEU1RZ0+pO0ovW4fw3sZ6Tx1y/onz/+6GAIDEuJCarlY9vZxHTVPUAIDQ/NPdZR3Be7X0XJ53MqCoAQCheNBdbh3BeyV6RAdxwyEAYcvCjoJj1MV61v024ivJk69ED+uEvH/SSqxjAwCSb4A7gZquRm09rSML+IWQogYAFOlF9xutsg7huTp6VocXNG9DUQMAivKqO46HWVajmZ7X3gUeXqGoAQBFeNMdoxXWITy3tQZq24LPguCsbwBAwV5yR4Z8b/P02UMjiqhpihoAULD73dFaah3CcydqqDYt6poCihoAUJCb3Nmc6V2lOrpVjwXFPh6HY9QAgLw5d5n+ZR3Cc1vqGe0WwvX5FDUAIE8r3Kl6yjqE547Vf9QolNvoUNQAgLwscMfqLesQXmuu2wq4A1llKGoAQB6muV/rU+sQXjtU96pViLek5WQyAEDOXne7UdNVaKr79EoQZk1T1ACAHDl3kztUP1nH8NqhOjP0x7tk4aE4AIqUhR0FT8+qziJ3mp6zDuG9zfSNgpB/lhhRAwCqNcPtSU3n4DuND/01KWoAQDX6u130iXWIhAj/fHiKGgBQhYXuJHcsR6ZzFn5RZ+HQE4AiZWFHwTHqio1wJ+pL6xCJUlsLVJezvgEA0VvlbnL7UtN5WqEJIb8iRQ0AqMAMt7f6aaV1jAQaG/LrUdQAgA2scre5rhppHSOhPgz59biFKABgPePcmaGXTZaE/d5l4RwRAEXKwo6Ck8lWW+iu1D0qs46RaLW0MNTTyZj6BgCs8YrrrLuo6SKt1Fehvh5FDQCQNNkd6g7X19YxUoGiBgCEar670HXRQOsYqRFuUXMyGQBk2hJ3h/6mBdYxUoWiBgCEosw9qqs0yzpG6nwZ6qtR1ACQSc69rGv0sXWMVPoh1FejqAEgc8rcQF3HtdKRWRLqq1HUAJApZW6ArtYU6xiptjjUV6OoASAzVrindb2mWcdIPYoaAJC3Oe4/ul9zrGNkAkUNAMjLe+52vciTsBKKogaAFFvontYdmmgdI2Nqh/pqFDUApFKpG6on9UzIZyAjFxQ1AKAKZe49PaPnNNc6SGbVDfXVKGoASJFJrr8e1RfWMTKuaaivRlEDQAoscG9rkF4P+S7TKEyTUF+NogaABCt1Y/SW3tIHWmUdBWs1C/XVKGoASKAl7iON0Qi9rR+to6CclqG+GkUNAIlR6qboQ32oDzVWy63DoFJbhPpqFDUAeG2hm6ppmqqpmqZJXGyVCG1CfTWKGgC8Uerm6XvN1beap3maoxn6TN9Zh0Le2oX6aoGzXh8A3svCjsIFUS/hXDdAG6u5mquWaqmBpAUq0xIt10otkvSjFmmeMvBWp95GWqQaIf48MaIGgFiUai63IMmEjqHWtFTDeoUAAEiTziG/HkUNAECIuof8ehQ1AAAh2j3k16OoAQAIzUbqEvIrUtQAAISml2qFfAUBRQ0AQGj6hP6KFDUAAKHpHforUtQAAIRkS+0Y+mtS1AAAhOQoBaHf446iBgAgJEdF8JoUNQAAodhSe0TwqhQ1AAChOC3ku3yvRlEDABCCGjolotcFAABFO1RtI3lYKkUNAEAILo7odSlqAACKtpP2iWQ8TVEDABCCP0X2yhQ1AABF6qwjI3ttihoAgCL9JZILs1ajqAEAKMqe+nWEr05RAwBQhBq6NYI7fK/7+gAAoGCnaNcIa5qiBgCgCBvrpoiXQFEDAFCw27RJpONpihoAgIIdot9GXNMUNQAABdpU/41hKRQ1AAAFCPSAWkQ+nqaoAQAoyKU6NIaapqgBACjAfroxpiVR1AAA5GkLPa2SWMbTFDUAAHlqqJcjvyjrfyhqAADyUEvPacfYapqiBgAgD4Hu1wEx1jRFDQBAHv6hU2OtaYoaAICc3ag/xFzTFDUAADm6VlfEXtNSifVqAwDgv0D/1kUGNU1RAwBQrVq6P/Zj07+gqAEAqFIDPaODjWqaogYAoEpb6BV1MatpTiYDAKAKe2m0aU1T1AAAVCLQH/S2NjOtaaa+AQCo0CZ6MKYHWVaNETUAZMJW1gEq0UAdrSNU6CB94kVNU9QAkAG1dIEmWIeoRCNN0K2qbx1jPU11nwaaT3n/gqIGgJTbVxN0W9DAk9opr1ZwYTBBB1nHWCPQyfpMZwaBN+8XRQ0AKbatntbb6uhN6VSmXfBa8LK6WMfQHnpfjwTxPWs6FxQ1AKTUFvqvJuk4j8aGVTss+EhPaVuz5XdWf43Qbt69WxQ1AMSiZqxL20q3a6rOCEq8q52q1AiODybpQW0f+5K76Cl9rGO8/KUmcNYJAHgvCzsKF/kOerl7Xvfo3cjXJNB++r0OU41ya+Tndmyp2eWSOjdEd+oVlcaw/EAH6hL19rCg1yb0crsB8EoWdhTRF/VqE91DekrfRPTqm+lYna1OlayLn9uxoqJe7Qv3Xz2jGREuewudolPVzuOSlnzdbgC8koUdRVxFLUmlbrCe0quaH+JrNtNROk77qmYV6+Hndqy8qFcb457Rs/o65KW21pE6Wr0qmHfwj5/bDYBXsrCjiLOoVyt17+llDdJEFfP2lmg37af91FO1ql0DP7djdUUtSc59rKEaonf0c5FLq6se6q0+6iYfj0ZXzM/tBsArWdhRxF/Uv5jrhmmEPtR4Lc75ewJtpa7qol21l3K/PtrP7ZhLUf9ilRursZqgjzUpj3dLqquO2l67qbt2Uu3EFPQv/NxuALyShR2FXVH/otRN0xRN03R9o3n6Rgvl9JMCNVFNNVJtNdXmaq1Waqn26qyGBeT1czvmU9T/U+Zm6EvN0Sx9o6+1RAtVqp/WzE3UVn01VlM1U0u1URu101ZVHhLwnZ/bDYBXsrCjsC/q6Pm5HQsr6izhOmoAADxGUQMA4DGKGgAAj1HUAAB4jKIGAMBjFDUAAB6jqAEA8FiJdYDV5ruR+kzTNV0ztUyL9LNWWUcCclSihmqgjdRGW2trddQeas5VoQBCY3z9+yr3ll7TO5pU1L1uAZ8E2l776GD1UbKeBFzlOmXgA8oNT6xww5PqGG63ce5hPaO51u8AEJHNdJxOUbdU7IL83MGHi6K2QlFXx2i7vedu0qvW6w7EoIcu12GJ3w35uYMPF0VthaKujsHJZGNcD9eLmkZGjNDh6unGermDBJAEMRf1T+5Ct4dGWq81EKsR6q6T3XzKGkABYi3qN1xH3a5S63UGYlemx9RZb1LVAPIWW1GXumvdIfrOen0BM9/qIPVzpZQ1gLzEdG7BfHeMhlmvK+CB/dRfzRJ36oyfJyGFi5PJrHAyWXViGVF/4/alpgFJ0hD11Nde7i4B+CmGop7idtcn1usJeGOyemoKVQ0gR5EX9RS3l2ZaryXglZnai6oGkKOIi3q2O1DzrNcR8M489dFXVDWAHERa1PPdAfrKeg0BL83SweLKagDVi7CoS11ffWq9foC3PtWx4mItANWJsKiv0VDrtQO8NkR/sY4AwHuRXVb3tvsV9yADqlFDr+lXCbiG1M/rb8PFddRWuI66OhFtt59cR+5CBuSghaaosfe7KT938OGiqK1Q1NWJaOr7SmoayMm3uso6AgCvRfIL1li3O9PeQI5qaJR283xE4edILFyMqK0woq5OJCPqC6lpIGdlutQ6AgCPRVDUQx3Pmwby8a6GeznSAeCDCIr6Rut1AhLnBusAALwVelGPc4Ot1wlInLf0EWNqABUKvagftl4jIJEesQ4AwFMhnwS4yrXmwiygAJtqtkq8PffVz7OFw8VZ31Y467s6IY+o36KmgYLM1dvWEQB4KeSiHmi9PkBivWYdAICXQi7q4dbrAyTWO9YBAHgp1KL+wfFYS6BQn/B8agAVCLWoR6jMen2AxCrT+9YRAHgo1KKeYr02QKJ9Zh0AgIdCLeoZ1msDJBqfIADlhVrU063XBkg0PkEAygu1qGdbrw2QaF9bBwDgoVCL+mfrtQESbbF1AAAeCrWo2c0AxVhkHQCAhyhqwBsUNYDyIngeNQAACEuoRV3fem2ARGtgHQCAhyhqwBsUNYDyQi3qhtZrAyQav+oCKC/Uom5lvTZAorWxDgDAQ6EW9dbWawMkGp8gAOVR1IA3+AQBKC/Uou5ovTZAonWwDgDAQ6EW9Z5clg0UrIZ2t44AwEOhNmuzoJP1+gCJ1UXNAusMAPwT8hB4b+v1ARKLTw+AioRc1IdYrw+QWAdbBwDgpcCF+nKrXGt9Z71OQAJtqtkq8XbqO+QdhZect+9+ePzcji01OwPvfTFCHlGXBMdZrxGQSL/1uKYBWAr9NO1TrNcISKSTrQMA8FToRd0t6GO9TkDi/Eo7MZ4GUKEILny+0nqdgMT5k3UAAN6KoKj3CXparxWQKHupF+NpAJWI5FZit6qm9XoBiVFTt1pHAOCxSIp65+Bs6/UCEuM8jk8DqEJEl9X95LbTt9brBiTA5pqsxt4XtZ/X34aL66itcB11dSJ6ikaT4Ammv4Fq1dDDCahpAJYie9zVfsEV1usGeO8qHUBNA6hShDMhpe4ADbFeP8Bj++tN1UxEUfs5ZRoupr6tMPVdnQgfIF0zeF47Wq8f4K3t9WxCahqApQiLWmocDNSW1msIeKm1XuP50wByEGlRS62C17WJ9ToC3tlEg7UFNQ0gBxEXtdQxGKX21msJeKWthqsDNQ0gJ5EXtdQ+eFddrNcT8EYnvauO1DSAHMVQ1NLmwVDtZ72mgBf217tqQ00DyFksRS01Cwbr73EtDPBUoMv1JqeQAchLbN0ZBJcHr6uF9foCZjbXm/p7wAVZAPIT6yD3gGCKLuDWosigGjpTk9WHkgaQt5hnoxsHtwUfqJf1WgOx2ktjdV/APb0BFMLgsPHOwfDgXR0q9lrIgh4apHcCHmQJoFCGt379yD2ip/Wd9TsARKSFjtcp6pqKivbzHtHh4l7fVrjXd3WMt1upG6TX9I4mqsz6nQBCUkM7aG8dov1TdCdvP3fw4aKorVDU1fFku/3gRukzTdd0fa2lWqhFWmkdCchRLTVQI22kNtpaW6uj9lDT1O12PNlRRIqitkJRV8fP7eZxsCx8mH3Fz4QdX9/7MLEdrVDU1eEeJAAAeIyiBgDAYxQ1AAAeo6gBAPAYRQ0AgMcoagAAPEZRAwDgMYoaAACPUdQAAHiMogYAwGMUNQAAHqOoAQDwGEUNAIDHKGoAADxGUQMA4DGKGgAAj1HUAAB4jKIGAMBjFDUAAB6jqAEA8BhFDQCAxyhqAAA8RlEDAOAxihoAAI9R1AAAeIyiBgDAYxQ1AAAeo6gBAPAYRQ0AgMcoagAAPEZRAwDgMYoaAACPUdQAAHiMogYAwGMUNQAAHqOoAQDwGEUNAIDHAmedIGHBXGCdILv4mQjHKjdM7+pDzdB3WqhS6zgJU6KG2kzttYt6aW+VeL/tk7G1N1IjNVdnddW+6q7A+3c1br7u+7wNlrSdcprwM1G8r9wtekLfW8dIiU10gi5SW2+3fzK3dhudoIu1qbfvqgVf933eBkvSTjlt+Jkozk/uat2jVdYxUqaWztFf1Ni7n4Fkb+36Ok9XqYF376oVX/d93gZLyk45jfiZKMYwd4LmWIdIqVZ6Unt59VOQhq29pe5XH6/eVTucTAZkwF2ud+J33P6arf10j0e/RqZja3+pA3WLR++qJYoaSL0b3fnenkaUDqU6Vzd6Uirp2dplukSXe/Ku2vJ1NtHbYMmY5kwnfiYKc5c73zpCRtytc8x/FtK3tW/X783fVWu+7vu8Deb7TjnN+JkoxDDXOyXjK/+V6G3jY9Vp3No1NVS9vP6MRc/XfZ+3wfzeKacbPxP5+8ltn4KjlcnRSpMMzwBP69buoPGq6/GnLHocowZS7OpU7rj9NVvXGi49rVv7M/3TOoIxXwcp3gbzefSUdvxM5Otr114rrUNkTC1NM7oFSpq3djN9lemrqhlRA6n1r9TuuP21UrcZLTnNW/sHPWgdwZSvgxRvg/k7eko/fibys8q10lzrEBm0ieYY3AM87Vu7u9739HMWB0bUQEoNS/WO21/z9J7BUtO+tUfrK09/UY8DRQ2k1LvWATJruMEy0761nd6xjmCIogZS6kPrAJk1xmCZ6d/aH1kHMERRAyk1wzpAZn1usMz0b+1J1gEMUdRASn1rHSCzLN759G/t+dYBDFHUQEottg6QWYsMlpn+rf2TdQBDFDWQUum9qtZ3KwyWmf6tvcw6gCGKGgAAj1HUAAB4jKIGAMBjFDUAAB6jqAEA8BhFDQCAxyhqAAA8RlEDAOAxihoAAI9R1AAAeIyiBgDAYxQ1AAAeo6gBAPAYRQ0AgMcoagAAPEZRAwDgMYoaAACPUdQAAHjs/wHNWMcbxZEPKgAAACV0RVh0ZGF0ZTpjcmVhdGUAMjAyMS0wMy0yNVQyMDowNjo1OSswMDowMCePNhcAAAAldEVYdGRhdGU6bW9kaWZ5ADIwMTYtMDQtMTZUMDg6MDg6MTArMDA6MDDB9IGxAAAAAElFTkSuQmCC;sketch=0;fontFamily=Helvetica;fontSize=12;fontColor=default;strokeColor=#99FFCC;fillColor=#99FFCC;html=1;" parent="mZxIsJHRWfemn0VkZBA5-1" vertex="1">
                    <mxGeometry x="642.37" y="229.83" width="134.75" height="120.17" as="geometry"/>
                </mxCell>
                <mxCell id="mZxIsJHRWfemn0VkZBA5-51" value="" style="endArrow=classic;startArrow=classic;html=1;rounded=0;sketch=1;fontFamily=Helvetica;fontSize=12;fontColor=default;strokeColor=#000000;strokeWidth=2;fillColor=#000000;" parent="mZxIsJHRWfemn0VkZBA5-1" edge="1">
                    <mxGeometry width="50" height="50" relative="1" as="geometry">
                        <mxPoint x="642.37" y="360" as="sourcePoint"/>
                        <mxPoint x="790" y="360" as="targetPoint"/>
                    </mxGeometry>
                </mxCell>
                <mxCell id="mZxIsJHRWfemn0VkZBA5-52" value="公園" style="text;html=1;align=center;verticalAlign=middle;resizable=0;points=[];autosize=1;strokeColor=none;fillColor=none;fontSize=12;fontFamily=Helvetica;fontColor=default;" parent="mZxIsJHRWfemn0VkZBA5-1" vertex="1">
                    <mxGeometry x="700" y="365" width="40" height="20" as="geometry"/>
                </mxCell>
                <mxCell id="mZxIsJHRWfemn0VkZBA5-53" value="道路" style="text;html=1;align=center;verticalAlign=middle;resizable=0;points=[];autosize=1;strokeColor=none;fillColor=none;fontSize=12;fontFamily=Helvetica;fontColor=default;" parent="mZxIsJHRWfemn0VkZBA5-1" vertex="1">
                    <mxGeometry x="-5" y="454" width="40" height="20" as="geometry"/>
                </mxCell>
                <mxCell id="mZxIsJHRWfemn0VkZBA5-54" value="" style="endArrow=classic;startArrow=classic;html=1;rounded=0;sketch=1;fontFamily=Helvetica;fontSize=12;fontColor=default;strokeColor=#000000;strokeWidth=2;fillColor=#000000;" parent="mZxIsJHRWfemn0VkZBA5-1" edge="1">
                    <mxGeometry width="50" height="50" relative="1" as="geometry">
                        <mxPoint x="-40" y="450" as="sourcePoint"/>
                        <mxPoint x="70" y="450" as="targetPoint"/>
                    </mxGeometry>
                </mxCell>
            </root>
        </mxGraphModel>
    </diagram>
    <diagram id="mbv81AJPYsv2hmL7udtc" name="ページ5">
        <mxGraphModel dx="1217" dy="541" grid="1" gridSize="10" guides="1" tooltips="1" connect="1" arrows="1" fold="1" page="1" pageScale="1" pageWidth="827" pageHeight="1169" math="0" shadow="0">
            <root>
                <mxCell id="BAi_wHDJzTf66pmdEmbA-0"/>
                <mxCell id="BAi_wHDJzTf66pmdEmbA-1" parent="BAi_wHDJzTf66pmdEmbA-0"/>
                <mxCell id="BAi_wHDJzTf66pmdEmbA-2" value="" style="shape=flexArrow;endArrow=classic;html=1;strokeColor=#000000;sketch=1;rounded=0;fillColor=#000000;strokeWidth=2;endWidth=49.70521541950113;endSize=15.19047619047619;width=43.80952380952381;" edge="1" parent="BAi_wHDJzTf66pmdEmbA-1">
                    <mxGeometry width="50" height="50" relative="1" as="geometry">
                        <mxPoint x="290" y="520" as="sourcePoint"/>
                        <mxPoint x="439" y="520" as="targetPoint"/>
                    </mxGeometry>
                </mxCell>
            </root>
        </mxGraphModel>
    </diagram>
</mxfile>